<svg id="Composant_10_19" data-name="Composant 10 – 19" xmlns="http://www.w3.org/2000/svg" width="262.007" height="19.5" viewBox="0 0 262.007 19.5">
  <g id="Groupe_380" data-name="Groupe 380" transform="translate(67.569)">
    <g id="Groupe_376" data-name="Groupe 376" transform="translate(0)">
      <path id="Tracé_393" data-name="Tracé 393" d="M297.647,184.614a.784.784,0,0,1-.555-.229l-7.647-7.606a.786.786,0,0,1,1.109-1.115l7.647,7.606a.786.786,0,0,1-.555,1.344Z" transform="translate(-289.214 -165.27)" fill="#fff"/>
      <path id="Tracé_394" data-name="Tracé 394" d="M449.057,184.614a.786.786,0,0,1-.555-1.344l7.647-7.606a.786.786,0,0,1,1.109,1.115l-7.647,7.606A.784.784,0,0,1,449.057,184.614Z" transform="translate(-395.064 -165.27)" fill="#fff"/>
      <path id="Tracé_395" data-name="Tracé 395" d="M307.01,165.689a.764.764,0,0,1-.555-.241l-16.832-17.641a.861.861,0,0,1,0-1.172.758.758,0,0,1,1.112,0l16.832,17.641a.86.86,0,0,1,0,1.172A.765.765,0,0,1,307.01,165.689Z" transform="translate(-289.336 -146.345)" fill="#fff"/>
      <path id="Tracé_396" data-name="Tracé 396" d="M420.046,165.689a.765.765,0,0,1-.558-.244.86.86,0,0,1,0-1.172l16.829-17.641a.758.758,0,0,1,1.112,0,.86.86,0,0,1,0,1.172L420.6,165.448A.764.764,0,0,1,420.046,165.689Z" transform="translate(-375.178 -146.345)" fill="#fff"/>
      <path id="Tracé_397" data-name="Tracé 397" d="M333.142,165.59a.764.764,0,0,1-.555-.241l-16.875-17.686a.86.86,0,0,1,0-1.172.758.758,0,0,1,1.112,0L333.7,164.174a.86.86,0,0,1,0,1.171A.765.765,0,0,1,333.142,165.59Z" transform="translate(-307.219 -146.247)" fill="#fff"/>
      <path id="Tracé_398" data-name="Tracé 398" d="M393.463,165.59a.764.764,0,0,1-.557-.244.86.86,0,0,1,0-1.171l16.875-17.686a.758.758,0,0,1,1.112,0,.861.861,0,0,1,0,1.172l-16.875,17.686A.763.763,0,0,1,393.463,165.59Z" transform="translate(-356.957 -146.247)" fill="#fff"/>
      <path id="Tracé_399" data-name="Tracé 399" d="M355.456,160.116l-12.594-12.527a.786.786,0,1,1,1.109-1.115L355.456,157.9l11.484-11.424a.786.786,0,1,1,1.109,1.115Z" transform="translate(-324.243 -146.245)" fill="#fff"/>
      <path id="Tracé_400" data-name="Tracé 400" d="M373.349,151.949l-4.384-4.36a.786.786,0,1,1,1.109-1.115l3.274,3.257,3.274-3.257a.786.786,0,1,1,1.109,1.115Z" transform="translate(-342.134 -146.245)" fill="#fff"/>
    </g>
  </g>
  <g id="Groupe_381" data-name="Groupe 381" transform="translate(133.3)">
    <g id="Groupe_377" data-name="Groupe 377">
      <path id="Tracé_402" data-name="Tracé 402" d="M613.651,148.012l-17.2,17.2a.849.849,0,1,0,1.2,1.2l17.2-17.2a.849.849,0,0,0-1.2-1.2Z" transform="translate(-571.185 -147.763)" fill="#fff"/>
      <path id="Tracé_403" data-name="Tracé 403" d="M671.205,148.012a.85.85,0,0,0-1.2,0l-17.2,17.2a.849.849,0,1,0,1.2,1.2l17.2-17.2A.849.849,0,0,0,671.205,148.012Z" transform="translate(-608.391 -147.763)" fill="#fff"/>
      <path id="Tracé_404" data-name="Tracé 404" d="M696.733,164.563a.849.849,0,0,0-1.2,0l-9.979,9.979a.849.849,0,1,0,1.2,1.2l9.979-9.979A.849.849,0,0,0,696.733,164.563Z" transform="translate(-630.014 -158.691)" fill="#fff"/>
      <path id="Tracé_405" data-name="Tracé 405" d="M710.943,192.61l-2.048,2.048a.849.849,0,1,0,1.2,1.2l2.048-2.048a.849.849,0,1,0-1.2-1.2Z" transform="translate(-645.425 -177.208)" fill="#fff"/>
      <path id="Tracé_406" data-name="Tracé 406" d="M632.367,176.346,624.8,183.92a.849.849,0,1,0,1.2,1.2l7.57-7.574a.849.849,0,0,0-1.2-1.2Z" transform="translate(-589.9 -166.47)" fill="#fff"/>
      <path id="Tracé_407" data-name="Tracé 407" d="M663.617,153.7a.847.847,0,0,0,.6-.249l4.235-4.236a.849.849,0,0,0-1.2-1.2l-4.235,4.236a.85.85,0,0,0,.6,1.45Z" transform="translate(-615.135 -147.763)" fill="#fff"/>
      <path id="Tracé_408" data-name="Tracé 408" d="M575.323,153.534a8.692,8.692,0,0,1,2.078-4.286.2.2,0,0,0,.019-.023.012.012,0,0,0,0-.009c.007-.007.012-.014.018-.021a.785.785,0,0,0,.068-.1l.007-.014a.443.443,0,0,0,.042-.09l.007-.016a.044.044,0,0,0,0-.016c.007-.019.014-.037.018-.056a.359.359,0,0,0,.012-.07.029.029,0,0,0,0-.014l0,0a.007.007,0,0,0,0,0v-.007a.914.914,0,0,0,.009-.116.813.813,0,0,0-.4-.7.8.8,0,0,0-.425-.119.653.653,0,0,0-.149.016.729.729,0,0,0-.2.065h0l-.047.025-.019.012c-.009,0-.018.012-.025.016s0,0-.009,0l-.033.023,0,0-.014.01s0,0,0,0a.143.143,0,0,1-.023.019s0,0,0,0c-.019.019-.039.037-.058.058a.223.223,0,0,0-.023.025.5.5,0,0,1-.035.039s0,.01-.009.014-.026.037-.039.058a10.156,10.156,0,0,0-2.355,4.881,9.358,9.358,0,0,1-7.119,7.317,10.182,10.182,0,0,0-5.383,3.035,11.518,11.518,0,0,0-1.557,1.961.3.3,0,0,1-.021.033c0,.009-.009.018-.014.03s-.012.025-.019.039a.007.007,0,0,1,0,0c0,.007,0,.012-.007.018v.007s0,.007,0,.009c-.014.047-.025.1-.037.142a.081.081,0,0,0,0,.021c0,.007,0,.016,0,.023a.7.7,0,0,0,0,.1.815.815,0,0,0,.393.7.79.79,0,0,0,.421.119.869.869,0,0,0,.209-.025.68.68,0,0,0,.1-.03l.018-.007.007,0a.316.316,0,0,0,.065-.03l.032-.021a.2.2,0,0,0,.042-.03.129.129,0,0,0,.016-.009s0,0,0,0l0,0s0,0,0,0c.023-.021.051-.042.072-.063l.012-.012.025-.023a.248.248,0,0,0,.019-.023.011.011,0,0,0,0-.009l.018-.021,0,0a.715.715,0,0,0,.063-.091l.007-.014a.469.469,0,0,0,.023-.044,9.751,9.751,0,0,1,1.281-1.6,8.687,8.687,0,0,1,4.644-2.6,10.978,10.978,0,0,0,8.272-8.5Z" transform="translate(-546.998 -147.837)" fill="#fff"/>
      <path id="Tracé_409" data-name="Tracé 409" d="M557.623,153.744A9.879,9.879,0,0,0,560.351,149s0-.012.007-.016a.042.042,0,0,0,0-.016.522.522,0,0,0,.019-.056.364.364,0,0,0,.012-.07.034.034,0,0,0,0-.016.007.007,0,0,0,0,0v-.007a.973.973,0,0,0,.009-.116.813.813,0,0,0-.4-.7.8.8,0,0,0-.425-.119.65.65,0,0,0-.149.016.732.732,0,0,0-.2.065h0l-.047.025-.019.012a.294.294,0,0,0-.025.016s0,0-.009,0l-.033.023,0,0a.04.04,0,0,1-.014.009.16.16,0,0,1-.023.019s0,0,0,0c-.019.019-.039.037-.058.058a.223.223,0,0,0-.023.025c-.012.014-.023.028-.035.039s0,.01-.009.014a.878.878,0,0,0-.074.121c0,.012-.012.025-.019.039a.007.007,0,0,1,0,0c0,.007,0,.012-.007.019v.007s0,.007,0,.01c-.014.047-.025.1-.037.142a.074.074,0,0,0,0,.021,8.414,8.414,0,0,1-2.324,4.035,8.814,8.814,0,0,1-4.674,2.624,11.106,11.106,0,0,0-8.325,8.546,14.537,14.537,0,0,1-.5,1.7v0a.014.014,0,0,0,0,0l-.058.151-.028.1c0,.007,0,.014,0,.021a.056.056,0,0,1,0,.014.032.032,0,0,0,0,.009c0,.013,0,.025,0,.038s0,.038,0,.057a.811.811,0,0,0,.393.7s0,0,0,0a.8.8,0,0,0,.416.116.874.874,0,0,0,.209-.025.66.66,0,0,0,.093-.03.077.077,0,0,0,.019-.007l.009,0a.268.268,0,0,0,.063-.03.2.2,0,0,0,.03-.019h0s0,0,0,0a.463.463,0,0,0,.042-.03.052.052,0,0,0,.012-.007l0,0s0,0,0,0h0l0,0h0c.023-.021.053-.042.072-.063l.014-.012.026-.023a.117.117,0,0,1,.018-.023s0,0,0-.01a.068.068,0,0,1,.019-.021s0,0,0,0a1,1,0,0,0,.065-.091l0-.008a.016.016,0,0,1,0-.006c.009-.014.014-.03.023-.044a.268.268,0,0,1,.016-.042s0,0,0,0,0-.012.007-.016a.041.041,0,0,0,0-.016,16.352,16.352,0,0,0,.588-1.985,9.485,9.485,0,0,1,7.177-7.368A10.293,10.293,0,0,0,557.623,153.744Z" transform="translate(-535.968 -147.837)" fill="#fff"/>
      <path id="Tracé_410" data-name="Tracé 410" d="M534.621,152.161a10.249,10.249,0,0,0,5.153-2.808s0,0,0,0h0a1,1,0,0,0,.077-.065l.012-.012a.263.263,0,0,0,.044-.047.012.012,0,0,0,0-.009c.007-.007.012-.014.019-.021a.752.752,0,0,0,.067-.1l0-.007,0-.007a.621.621,0,0,0,.049-.107.044.044,0,0,0,0-.016c.007-.019.014-.037.019-.056a.356.356,0,0,0,.014-.084.007.007,0,0,0,0-.007,1.049,1.049,0,0,0,.009-.123.814.814,0,0,0-.4-.7.8.8,0,0,0-.425-.119.652.652,0,0,0-.149.016.729.729,0,0,0-.2.065h0l-.046.025-.019.012h0l-.026.016s0,0-.009,0l-.037.028a.044.044,0,0,1-.014.009.162.162,0,0,1-.023.019h0s0,0,0,0c-.019.019-.04.037-.058.058a8.77,8.77,0,0,1-4.506,2.459,11.1,11.1,0,0,0-8.325,8.544,8.836,8.836,0,0,1-2.5,4.741c-.172.177-.339.339-.5.488,0,0,0,0,0,0-.018.019-.039.037-.058.058s-.039.044-.058.065c0,0,0,.009-.009.014a.9.9,0,0,0-.093.16.007.007,0,0,1,0,0,.125.125,0,0,0-.007.025.757.757,0,0,0-.044.172c0,.007,0,.016,0,.023a.694.694,0,0,0,0,.1.818.818,0,0,0,.651.8.807.807,0,0,0,.163.017.869.869,0,0,0,.209-.025.68.68,0,0,0,.1-.03l.019-.007.007,0a.325.325,0,0,0,.065-.03.469.469,0,0,0,.074-.051.1.1,0,0,0,.016-.009s0,0,0,0c.026-.021.056-.044.079-.068l.012-.012a.265.265,0,0,0,.044-.047.011.011,0,0,0,0-.009l0,0c.167-.153.338-.319.509-.5a10.292,10.292,0,0,0,2.917-5.488,9.477,9.477,0,0,1,7.177-7.365Z" transform="translate(-522.573 -147.837)" fill="#fff"/>
      <path id="Tracé_411" data-name="Tracé 411" d="M523.244,152.8a.807.807,0,0,0,.163.017.871.871,0,0,0,.209-.026.584.584,0,0,0,.1-.03l.019-.007.007,0a.32.32,0,0,0,.065-.03.449.449,0,0,0,.074-.051.1.1,0,0,0,.016-.01s0,0,0,0c.026-.021.056-.044.079-.068l.012-.012a.264.264,0,0,0,.044-.047.012.012,0,0,0,0-.009.717.717,0,0,0,.086-.116l.007-.014a.645.645,0,0,0,.049-.107.042.042,0,0,0,0-.016l0,0a8.808,8.808,0,0,1,1.825-2.6c.109-.111.216-.218.323-.321l0,0s0,0,0,0c.023-.021.051-.042.072-.063l.012-.012a.283.283,0,0,0,.045-.047.013.013,0,0,0,0-.009c.007-.007.012-.014.019-.021a.752.752,0,0,0,.067-.1l.007-.014a.643.643,0,0,0,.049-.107.043.043,0,0,0,0-.016.522.522,0,0,0,.019-.056.36.36,0,0,0,.014-.084.007.007,0,0,0,0-.007,1.035,1.035,0,0,0,.01-.123.813.813,0,0,0-.4-.7.8.8,0,0,0-.425-.119.65.65,0,0,0-.148.016.726.726,0,0,0-.2.065h0l-.046.025-.019.012h-.019l-.049.044,0,0a.041.041,0,0,1-.014.009.159.159,0,0,1-.023.019s0,0,0,0c-.019.019-.04.037-.058.058a.189.189,0,0,0-.023.025c-.128.121-.254.246-.384.379a10.44,10.44,0,0,0-2.171,3.105c0,.012-.012.025-.019.039a.007.007,0,0,1,0,0l-.007.019v.007a.766.766,0,0,0-.044.172c0,.007,0,.016,0,.023a.647.647,0,0,0,0,.1A.819.819,0,0,0,523.244,152.8Z" transform="translate(-522.586 -147.837)" fill="#fff"/>
    </g>
  </g>
  <g id="Groupe_382" data-name="Groupe 382" transform="translate(203.372 0)">
    <path id="Tracé_401" data-name="Tracé 401" d="M784.338,175.491a.688.688,0,0,1-.185.06C784.213,175.532,784.276,175.51,784.338,175.491Z" transform="translate(-775.606 -165.85)" fill="#fff"/>
    <g id="Groupe_378" data-name="Groupe 378">
      <path id="Tracé_412" data-name="Tracé 412" d="M897.074,164.18a.786.786,0,0,1-.4-1.464,27.83,27.83,0,0,0,12.879-17.279.786.786,0,1,1,1.528.374,29.408,29.408,0,0,1-13.61,18.261A.782.782,0,0,1,897.074,164.18Z" transform="translate(-852.47 -144.838)" fill="#fff"/>
      <path id="Tracé_413" data-name="Tracé 413" d="M782.142,153.85H757.765a.786.786,0,0,1,0-1.573h24.377a18.553,18.553,0,0,0,14.673-7.137.786.786,0,0,1,1.237.972A20.117,20.117,0,0,1,782.142,153.85Z" transform="translate(-756.979 -144.839)" fill="#fff"/>
      <path id="Tracé_414" data-name="Tracé 414" d="M780.518,146.656H757.765a.786.786,0,0,1,0-1.573h22.753a13.237,13.237,0,0,0,2.469-.231.786.786,0,1,1,.294,1.545A14.831,14.831,0,0,1,780.518,146.656Z" transform="translate(-756.979 -144.838)" fill="#fff"/>
      <path id="Tracé_415" data-name="Tracé 415" d="M783.881,160.943H757.765a.786.786,0,0,1,0-1.573h26.116a23.936,23.936,0,0,0,21.78-14.069.786.786,0,1,1,1.433.647A25.51,25.51,0,0,1,783.881,160.943Z" transform="translate(-756.979 -144.838)" fill="#fff"/>
    </g>
  </g>
  <g id="Groupe_379" data-name="Groupe 379" transform="translate(0)">
    <path id="Tracé_416" data-name="Tracé 416" d="M98.067,156.89a30.576,30.576,0,0,1-22.619-10.174.786.786,0,1,1,1.168-1.053,28.656,28.656,0,0,0,42.9,0,.786.786,0,1,1,1.168,1.053A30.576,30.576,0,0,1,98.067,156.89Z" transform="translate(-67.113 -145.403)" fill="#fff"/>
    <path id="Tracé_417" data-name="Tracé 417" d="M123.465,149.525a22.377,22.377,0,0,1-10.53-2.644.786.786,0,0,1,.742-1.386,20.718,20.718,0,0,0,19.575,0,.786.786,0,0,1,.742,1.386A22.378,22.378,0,0,1,123.465,149.525Z" transform="translate(-91.386 -145.402)" fill="#fff"/>
    <path id="Tracé_418" data-name="Tracé 418" d="M112.988,150.56h0a.814.814,0,0,0-1.126.208c-14.084,20.52-46.43,20.7-60.6.06-.778-1.7-2.722-.334-1.32.972,14.788,21.541,48.607,21.334,63.274-.1a.815.815,0,0,0-.193-1.113Z" transform="translate(-49.428 -148.577)" fill="#fff"/>
    <path id="Tracé_419" data-name="Tracé 419" d="M226.381,189.737a.786.786,0,0,1-.461-1.423,43.518,43.518,0,0,0,4.491-3.736c.083-.077.153-.144.223-.211a.786.786,0,1,1,1.09,1.134c-.078.075-.157.15-.238.225a44.9,44.9,0,0,1-4.644,3.862A.781.781,0,0,1,226.381,189.737Z" transform="translate(-167.604 -171.188)" fill="#fff"/>
    <path id="Tracé_420" data-name="Tracé 420" d="M55,189.69a.781.781,0,0,1-.46-.149,44.877,44.877,0,0,1-4.564-3.784c-.11-.1-.23-.215-.347-.328a.786.786,0,0,1,1.1-1.127c.106.1.214.205.323.305a43.49,43.49,0,0,0,4.413,3.661A.786.786,0,0,1,55,189.69Z" transform="translate(-49.391 -171.141)" fill="#fff"/>
  </g>
</svg>
