<svg xmlns="http://www.w3.org/2000/svg" width="68.331" height="20.478" viewBox="0 0 68.331 20.478">
  <g id="Groupe_391" data-name="Groupe 391" transform="translate(0)">
    <path id="Tracé_416" data-name="Tracé 416" d="M99.475,157.6a32.462,32.462,0,0,1-24.014-10.8.835.835,0,1,1,1.24-1.118,30.424,30.424,0,0,0,45.548,0,.835.835,0,1,1,1.24,1.118A32.462,32.462,0,0,1,99.475,157.6Z" transform="translate(-66.612 -145.402)" fill="#f1c2b0"/>
    <path id="Tracé_417" data-name="Tracé 417" d="M124.14,149.78a23.758,23.758,0,0,1-11.179-2.807.835.835,0,1,1,.788-1.472,22,22,0,0,0,20.783,0,.835.835,0,0,1,.788,1.472A23.759,23.759,0,0,1,124.14,149.78Z" transform="translate(-90.082 -145.402)" fill="#f1c2b0"/>
    <path id="Tracé_418" data-name="Tracé 418" d="M116.907,150.592h0a.864.864,0,0,0-1.2.221c-14.953,21.786-49.294,21.979-64.341.063-.826-1.807-2.889-.354-1.4,1.032,15.7,22.869,51.6,22.65,67.177-.111a.866.866,0,0,0-.205-1.181Z" transform="translate(-49.426 -148.487)" fill="#f1c2b0"/>
    <path id="Tracé_419" data-name="Tracé 419" d="M226.429,190.081a.835.835,0,0,1-.49-1.511,46.2,46.2,0,0,0,4.768-3.967c.089-.081.163-.153.237-.224a.835.835,0,1,1,1.157,1.2c-.083.08-.166.16-.253.239a47.661,47.661,0,0,1-4.93,4.1A.83.83,0,0,1,226.429,190.081Z" transform="translate(-164.026 -170.389)" fill="#f1c2b0"/>
    <path id="Tracé_420" data-name="Tracé 420" d="M55.346,190.036a.83.83,0,0,1-.489-.159,47.649,47.649,0,0,1-4.845-4.018c-.117-.107-.244-.228-.368-.348a.835.835,0,0,1,1.164-1.2c.112.109.227.218.343.324a46.175,46.175,0,0,0,4.685,3.886.835.835,0,0,1-.49,1.511Z" transform="translate(-49.391 -170.343)" fill="#f1c2b0"/>
  </g>
</svg>
