<svg id="Groupe_392" data-name="Groupe 392" xmlns="http://www.w3.org/2000/svg" width="66.154" height="20.48" viewBox="0 0 66.154 20.48">
  <g id="Groupe_376" data-name="Groupe 376" transform="translate(0)">
    <path id="Tracé_393" data-name="Tracé 393" d="M298.142,185.153a.83.83,0,0,1-.587-.242l-8.1-8.053a.833.833,0,1,1,1.174-1.181l8.1,8.053a.833.833,0,0,1-.587,1.423Z" transform="translate(-289.214 -164.673)" fill="#4e9587"/>
    <path id="Tracé_394" data-name="Tracé 394" d="M449.1,185.153a.833.833,0,0,1-.587-1.423l8.1-8.053a.833.833,0,0,1,1.174,1.181l-8.1,8.053A.83.83,0,0,1,449.1,185.153Z" transform="translate(-391.938 -164.673)" fill="#4e9587"/>
    <path id="Tracé_395" data-name="Tracé 395" d="M308.045,166.822a.809.809,0,0,1-.587-.255L289.637,147.89a.911.911,0,0,1,0-1.24.8.8,0,0,1,1.178,0l17.82,18.677a.911.911,0,0,1,0,1.24A.81.81,0,0,1,308.045,166.822Z" transform="translate(-289.333 -146.342)" fill="#4e9587"/>
    <path id="Tracé_396" data-name="Tracé 396" d="M420.092,166.822a.81.81,0,0,1-.59-.259.911.911,0,0,1,0-1.24l17.818-18.677a.8.8,0,0,1,1.178,0,.911.911,0,0,1,0,1.24L420.68,166.567A.809.809,0,0,1,420.092,166.822Z" transform="translate(-372.589 -146.342)" fill="#4e9587"/>
    <path id="Tracé_397" data-name="Tracé 397" d="M334.18,166.726a.809.809,0,0,1-.587-.255l-17.866-18.725a.911.911,0,0,1,0-1.241.8.8,0,0,1,1.178,0l17.866,18.725a.911.911,0,0,1,0,1.24A.81.81,0,0,1,334.18,166.726Z" transform="translate(-306.734 -146.246)" fill="#4e9587"/>
    <path id="Tracé_398" data-name="Tracé 398" d="M393.51,166.726a.809.809,0,0,1-.59-.259.91.91,0,0,1,0-1.24L410.789,146.5a.8.8,0,0,1,1.178,0,.911.911,0,0,1,0,1.241L394.1,166.471A.808.808,0,0,1,393.51,166.726Z" transform="translate(-354.858 -146.246)" fill="#4e9587"/>
    <path id="Tracé_399" data-name="Tracé 399" d="M356.21,160.931l-13.333-13.263a.833.833,0,1,1,1.174-1.181l12.159,12.095,12.159-12.095a.833.833,0,1,1,1.175,1.181Z" transform="translate(-323.163 -146.245)" fill="#4e9587"/>
    <path id="Tracé_400" data-name="Tracé 400" d="M373.62,152.285l-4.641-4.616a.833.833,0,1,1,1.174-1.181l3.467,3.448,3.467-3.448a.833.833,0,1,1,1.174,1.181Z" transform="translate(-340.572 -146.245)" fill="#4e9587"/>
  </g>
</svg>
