<svg id="Groupe_381" data-name="Groupe 381" xmlns="http://www.w3.org/2000/svg" width="72.566" height="20.48" viewBox="0 0 72.566 20.48">
  <g id="Groupe_377" data-name="Groupe 377">
    <path id="Tracé_402" data-name="Tracé 402" d="M615.11,148.032l-18.639,18.639a.92.92,0,1,0,1.3,1.3l18.639-18.639a.92.92,0,0,0-1.3-1.3Z" transform="translate(-569.094 -147.763)" fill="#cb6586"/>
    <path id="Tracé_403" data-name="Tracé 403" d="M672.764,148.032a.921.921,0,0,0-1.3,0l-18.639,18.639a.92.92,0,1,0,1.3,1.3l18.64-18.64A.92.92,0,0,0,672.764,148.032Z" transform="translate(-604.699 -147.763)" fill="#cb6586"/>
    <path id="Tracé_404" data-name="Tracé 404" d="M697.688,164.584a.92.92,0,0,0-1.3,0L685.573,175.4a.92.92,0,1,0,1.3,1.3l10.813-10.813A.92.92,0,0,0,697.688,164.584Z" transform="translate(-625.392 -158.221)" fill="#cb6586"/>
    <path id="Tracé_405" data-name="Tracé 405" d="M711.135,192.631l-2.219,2.219a.92.92,0,1,0,1.3,1.3l2.219-2.219a.92.92,0,0,0-1.3-1.3Z" transform="translate(-640.14 -175.942)" fill="#cb6586"/>
    <path id="Tracé_406" data-name="Tracé 406" d="M633.02,176.366l-8.2,8.208a.92.92,0,1,0,1.3,1.3l8.2-8.207a.92.92,0,0,0-1.3-1.3Z" transform="translate(-587.004 -165.665)" fill="#cb6586"/>
    <path id="Tracé_407" data-name="Tracé 407" d="M663.688,154.193a.918.918,0,0,0,.651-.27l4.589-4.59a.92.92,0,0,0-1.3-1.3l-4.59,4.59a.921.921,0,0,0,.651,1.571Z" transform="translate(-611.153 -147.763)" fill="#cb6586"/>
    <path id="Tracé_408" data-name="Tracé 408" d="M576.64,154.008a9.418,9.418,0,0,1,2.251-4.644.221.221,0,0,0,.02-.025.013.013,0,0,0,.005-.01c.007-.008.013-.015.02-.023a.855.855,0,0,0,.073-.1l.007-.015a.48.48,0,0,0,.045-.1c0-.005.005-.013.008-.018a.047.047,0,0,0,.005-.018c.007-.02.015-.04.02-.06a.391.391,0,0,0,.013-.076.033.033,0,0,0,0-.015l0,0a.008.008,0,0,0,0-.005v-.008a.985.985,0,0,0,.01-.126.882.882,0,0,0-.43-.758.872.872,0,0,0-.461-.128.708.708,0,0,0-.161.018.79.79,0,0,0-.216.071h-.005l-.05.028-.02.013c-.01.005-.02.013-.028.018s0,0-.01.005l-.035.025,0,0-.015.01s0,0,0,0a.157.157,0,0,1-.025.02s0,0-.005.005c-.02.02-.043.04-.063.063a.237.237,0,0,0-.025.028.55.55,0,0,1-.038.043c0,.005,0,.01-.01.015-.015.02-.028.041-.043.063a11.006,11.006,0,0,0-2.551,5.289,10.14,10.14,0,0,1-7.714,7.928,11.034,11.034,0,0,0-5.833,3.289,12.483,12.483,0,0,0-1.687,2.125.321.321,0,0,1-.023.035c0,.01-.01.02-.015.033s-.013.028-.02.043a.008.008,0,0,1,0,.005c0,.007,0,.013-.007.02v.008s0,.007,0,.01c-.015.05-.028.1-.04.154a.085.085,0,0,0,0,.023c0,.008-.005.018-.005.025a.753.753,0,0,0,0,.1.883.883,0,0,0,.426.758.856.856,0,0,0,.456.128.941.941,0,0,0,.226-.028.735.735,0,0,0,.1-.033l.02-.008.008-.005a.343.343,0,0,0,.071-.033l.035-.022a.216.216,0,0,0,.046-.033.139.139,0,0,0,.017-.01s0,0,.005,0l0,0s0,0,0,0c.025-.023.056-.045.078-.068l.013-.013.028-.025a.266.266,0,0,0,.02-.025.012.012,0,0,0,.005-.01l.02-.023.005,0a.769.769,0,0,0,.068-.1l.007-.015a.5.5,0,0,0,.025-.048,10.566,10.566,0,0,1,1.388-1.73,9.413,9.413,0,0,1,5.032-2.821,11.9,11.9,0,0,0,8.963-9.213Z" transform="translate(-545.947 -147.834)" fill="#cb6586"/>
    <path id="Tracé_409" data-name="Tracé 409" d="M558.857,154.234a10.7,10.7,0,0,0,2.957-5.145c0-.005.005-.013.008-.018a.046.046,0,0,0,0-.018.571.571,0,0,0,.02-.06.391.391,0,0,0,.013-.076.037.037,0,0,0,.005-.018.008.008,0,0,0,0-.005v-.008a1.069,1.069,0,0,0,.01-.126.881.881,0,0,0-.431-.758.87.87,0,0,0-.461-.128.706.706,0,0,0-.161.018.792.792,0,0,0-.217.071h0l-.05.028-.02.013a.322.322,0,0,0-.028.018s-.005,0-.01.005l-.035.025-.005.005a.045.045,0,0,1-.015.01.179.179,0,0,1-.025.02s0,0-.005.005c-.02.02-.043.04-.063.063a.242.242,0,0,0-.025.028c-.013.015-.025.03-.038.043s-.005.01-.01.015a.95.95,0,0,0-.081.131c-.005.013-.013.028-.02.043a.008.008,0,0,1,0,.005c0,.008-.005.013-.007.02v.007s0,.008,0,.01c-.015.05-.028.1-.041.154a.082.082,0,0,0,0,.023,9.118,9.118,0,0,1-2.519,4.372,9.551,9.551,0,0,1-5.065,2.843,12.035,12.035,0,0,0-9.021,9.26,15.754,15.754,0,0,1-.539,1.846v0a.015.015,0,0,0,0,.005l-.063.164-.03.113c0,.007,0,.015,0,.022a.06.06,0,0,1,0,.015.033.033,0,0,0,0,.01c0,.014,0,.027,0,.041s0,.041,0,.062a.878.878,0,0,0,.426.758s0,0,0,0a.861.861,0,0,0,.451.126.948.948,0,0,0,.227-.028.711.711,0,0,0,.1-.033.083.083,0,0,0,.02-.008l.01,0a.292.292,0,0,0,.068-.033.226.226,0,0,0,.033-.02h0s0,0,.005,0a.5.5,0,0,0,.045-.033.058.058,0,0,0,.013-.007l0,0s0,0,0,0h0l0,0h0c.025-.022.058-.045.078-.068l.015-.013.028-.025a.126.126,0,0,1,.02-.025s.005-.005.005-.01a.074.074,0,0,1,.02-.022s0,0,0-.005a1.081,1.081,0,0,0,.071-.1l0-.009a.017.017,0,0,1,0-.006c.01-.015.015-.033.025-.048a.284.284,0,0,1,.018-.045s0,0,0-.005,0-.013.007-.018a.045.045,0,0,0,.005-.017,17.741,17.741,0,0,0,.637-2.151A10.278,10.278,0,0,1,553,157.549,11.154,11.154,0,0,0,558.857,154.234Z" transform="translate(-535.392 -147.834)" fill="#cb6586"/>
    <path id="Tracé_410" data-name="Tracé 410" d="M535.629,152.519a11.106,11.106,0,0,0,5.584-3.043s0,0,0,0h0c.028-.022.058-.045.083-.07l.013-.013a.29.29,0,0,0,.048-.05.013.013,0,0,0,.005-.01c.008-.008.013-.015.02-.023a.809.809,0,0,0,.073-.1l0-.007,0-.008a.671.671,0,0,0,.053-.116.047.047,0,0,0,.005-.018c.007-.02.015-.04.02-.06a.387.387,0,0,0,.015-.091.007.007,0,0,0,0-.008,1.129,1.129,0,0,0,.01-.134.882.882,0,0,0-.431-.758.872.872,0,0,0-.461-.128.708.708,0,0,0-.161.018.789.789,0,0,0-.216.071H540.3l-.05.028-.02.013h0c-.01.005-.02.013-.028.017s0,0-.01.005l-.04.03a.048.048,0,0,1-.015.01.171.171,0,0,1-.025.02h0s0,0,0,.005c-.02.02-.043.04-.063.063a9.5,9.5,0,0,1-4.883,2.664,12.027,12.027,0,0,0-9.021,9.258,9.575,9.575,0,0,1-2.713,5.138c-.186.191-.367.368-.546.529,0,0,0,0-.005.005-.02.02-.043.04-.063.063s-.043.048-.063.071c0,0,0,.01-.01.015a.976.976,0,0,0-.1.174.008.008,0,0,1,0,0,.131.131,0,0,0-.007.028.82.82,0,0,0-.048.187c0,.007-.005.018-.005.025a.752.752,0,0,0,0,.1.887.887,0,0,0,.705.869.873.873,0,0,0,.177.018.942.942,0,0,0,.227-.028.742.742,0,0,0,.1-.033l.02-.008.007-.005a.351.351,0,0,0,.071-.032.507.507,0,0,0,.081-.056.1.1,0,0,0,.017-.01s0,0,.005,0c.028-.023.06-.048.086-.073l.013-.013a.289.289,0,0,0,.048-.05.012.012,0,0,0,.005-.01l0,0c.18-.166.366-.346.552-.536a11.152,11.152,0,0,0,3.161-5.946,10.269,10.269,0,0,1,7.777-7.981Z" transform="translate(-522.573 -147.834)" fill="#cb6586"/>
    <path id="Tracé_411" data-name="Tracé 411" d="M523.3,153.217a.875.875,0,0,0,.177.018.945.945,0,0,0,.227-.028.634.634,0,0,0,.1-.033l.02-.007.008-.005a.348.348,0,0,0,.07-.033.49.49,0,0,0,.081-.055.108.108,0,0,0,.018-.01s0,0,.005,0c.028-.023.06-.048.085-.073l.013-.013a.287.287,0,0,0,.048-.05.013.013,0,0,0,.005-.01.776.776,0,0,0,.093-.126l.008-.015a.7.7,0,0,0,.053-.116.046.046,0,0,0,.005-.018l0-.005a9.544,9.544,0,0,1,1.977-2.813c.118-.121.234-.237.35-.348l0,0s0,0,.005,0c.025-.023.056-.045.078-.068l.013-.013a.305.305,0,0,0,.048-.05.014.014,0,0,0,0-.01c.008-.008.013-.015.02-.023a.816.816,0,0,0,.073-.1l.008-.015a.7.7,0,0,0,.053-.116.046.046,0,0,0,.005-.018.57.57,0,0,0,.02-.06.387.387,0,0,0,.015-.091.007.007,0,0,0,0-.008,1.129,1.129,0,0,0,.01-.134.881.881,0,0,0-.431-.758.871.871,0,0,0-.461-.128.7.7,0,0,0-.161.018.788.788,0,0,0-.217.071h-.005l-.05.028-.02.013h-.02l-.053.048-.005.005a.045.045,0,0,1-.015.01.175.175,0,0,1-.025.02s0,0,0,.005c-.02.02-.043.04-.063.063a.212.212,0,0,0-.025.028c-.139.131-.275.267-.416.41a11.315,11.315,0,0,0-2.352,3.365c-.005.013-.012.028-.02.043a.008.008,0,0,1,0,.005l-.008.02v.007a.825.825,0,0,0-.048.187c0,.007,0,.017,0,.025a.7.7,0,0,0-.005.1A.887.887,0,0,0,523.3,153.217Z" transform="translate(-522.586 -147.834)" fill="#cb6586"/>
  </g>
</svg>
