<svg xmlns="http://www.w3.org/2000/svg" width="181.283" height="32.381" viewBox="0 0 181.283 32.381">
  <g id="Groupe_362" data-name="Groupe 362" transform="translate(0)">
    <g id="Groupe_362-2" data-name="Groupe 362" transform="translate(48.72 20.225)">
      <path id="Tracé_256" data-name="Tracé 256" d="M294.638,181.339a.5.5,0,0,1-.357-.147l-4.918-4.892a.506.506,0,1,1,.713-.717l4.918,4.892a.506.506,0,0,1-.357.864Z" transform="translate(-289.214 -169.53)" fill="#4e9587"/>
      <path id="Tracé_257" data-name="Tracé 257" d="M448.776,181.339a.506.506,0,0,1-.357-.864l4.918-4.892a.506.506,0,0,1,.713.717l-4.918,4.892A.5.5,0,0,1,448.776,181.339Z" transform="translate(-416.093 -169.53)" fill="#4e9587"/>
      <path id="Tracé_258" data-name="Tracé 258" d="M300.723,158.17a.5.5,0,0,1-.357-.147l-10.826-10.768a.506.506,0,0,1,.714-.717l10.826,10.768a.506.506,0,0,1-.357.864Z" transform="translate(-289.356 -146.361)" fill="#4e9587"/>
      <path id="Tracé_259" data-name="Tracé 259" d="M419.766,158.17a.506.506,0,0,1-.357-.864l10.824-10.768a.506.506,0,0,1,.714.717l-10.824,10.768A.5.5,0,0,1,419.766,158.17Z" transform="translate(-392.952 -146.361)" fill="#4e9587"/>
      <path id="Tracé_260" data-name="Tracé 260" d="M326.841,158.055a.5.5,0,0,1-.357-.147l-10.854-10.8a.506.506,0,0,1,.714-.717l10.854,10.8a.506.506,0,0,1-.357.864Z" transform="translate(-310.167 -146.247)" fill="#4e9587"/>
      <path id="Tracé_261" data-name="Tracé 261" d="M393.183,158.055a.506.506,0,0,1-.357-.864l10.854-10.8a.506.506,0,1,1,.713.717l-10.854,10.8A.5.5,0,0,1,393.183,158.055Z" transform="translate(-371.746 -146.247)" fill="#4e9587"/>
      <path id="Tracé_262" data-name="Tracé 262" d="M350.88,155.167l-8.1-8.057a.506.506,0,1,1,.713-.717l7.387,7.348,7.386-7.348a.506.506,0,1,1,.713.717Z" transform="translate(-331.825 -146.245)" fill="#4e9587"/>
      <path id="Tracé_263" data-name="Tracé 263" d="M371.7,149.914l-2.819-2.8a.506.506,0,1,1,.714-.717l2.106,2.095,2.106-2.095a.506.506,0,1,1,.713.717Z" transform="translate(-352.646 -146.245)" fill="#4e9587"/>
    </g>
    <path id="Tracé_264" data-name="Tracé 264" d="M784.272,175.491a.443.443,0,0,1-.119.039Z" transform="translate(-635.306 -149.35)" fill="#cb6586"/>
    <path id="Tracé_265" data-name="Tracé 265" d="M596.707,159.016a.506.506,0,0,1-.357-.863l10.242-10.242a.506.506,0,1,1,.715.715l-10.242,10.242A.5.5,0,0,1,596.707,159.016Z" transform="translate(-485.377 -127.231)" fill="#cb6586"/>
    <path id="Tracé_266" data-name="Tracé 266" d="M653.06,159.017a.506.506,0,0,1-.357-.863l10.242-10.242a.506.506,0,1,1,.716.715l-10.242,10.242A.5.5,0,0,1,653.06,159.017Z" transform="translate(-530.33 -127.232)" fill="#cb6586"/>
    <path id="Tracé_267" data-name="Tracé 267" d="M685.81,171.268a.506.506,0,0,1-.358-.863l5.942-5.942a.506.506,0,0,1,.715.715l-5.942,5.942A.505.505,0,0,1,685.81,171.268Z" transform="translate(-556.455 -140.434)" fill="#cb6586"/>
    <path id="Tracé_268" data-name="Tracé 268" d="M709.152,194.592a.506.506,0,0,1-.357-.863l1.219-1.219a.506.506,0,0,1,.715.715l-1.219,1.219A.5.5,0,0,1,709.152,194.592Z" transform="translate(-575.075 -162.807)" fill="#cb6586"/>
    <path id="Tracé_269" data-name="Tracé 269" d="M625.053,181.618a.506.506,0,0,1-.358-.863l4.508-4.51a.506.506,0,1,1,.715.715l-4.507,4.51A.5.5,0,0,1,625.053,181.618Z" transform="translate(-507.989 -149.833)" fill="#cb6586"/>
    <path id="Tracé_270" data-name="Tracé 270" d="M663.274,151.3a.506.506,0,0,1-.358-.863l2.522-2.522a.506.506,0,1,1,.715.715l-2.522,2.522A.5.5,0,0,1,663.274,151.3Z" transform="translate(-538.478 -127.231)" fill="#cb6586"/>
    <path id="Tracé_271" data-name="Tracé 271" d="M559.567,158.878a.412.412,0,0,1,0-.057s0-.01,0-.014a.048.048,0,0,1,0-.013c.007-.028.014-.057.022-.084,0,0,0,0,0-.005v0l0-.011a0,0,0,0,0,0,0l.011-.023c0-.007.007-.013.008-.018a.173.173,0,0,0,.012-.019,6.865,6.865,0,0,1,.927-1.168,6.063,6.063,0,0,1,3.2-1.807,5.572,5.572,0,0,0,4.239-4.356,6.046,6.046,0,0,1,1.4-2.906c.037-.043.075-.086.115-.13,0,0,0,0,0,0l.05-.033h.5a.484.484,0,0,1,.237.417.549.549,0,0,1-.005.069v0a0,0,0,0,1,0,0h0a.018.018,0,0,1,0,.008.211.211,0,0,1-.007.041.319.319,0,0,1-.011.033.025.025,0,0,1,0,.01l0,.01a.26.26,0,0,1-.025.054l0,.008a.476.476,0,0,1-.04.057l-.011.013a.007.007,0,0,1,0,.005.117.117,0,0,1-.011.014,5.175,5.175,0,0,0-1.237,2.552,6.538,6.538,0,0,1-4.925,5.062,5.173,5.173,0,0,0-2.765,1.55,5.8,5.8,0,0,0-.762.951c-.019.029-.039.059-.055.089l0,0-.011.013a.007.007,0,0,1,0,.005l-.011.014-.015.014-.007.007c-.013.013-.029.025-.043.037h-.007l-.01.005a.118.118,0,0,1-.025.018h-.5A.486.486,0,0,1,559.567,158.878Z" transform="translate(-456.154 -127.599)" fill="#cb6586"/>
    <path id="Tracé_272" data-name="Tracé 272" d="M542.862,158.877a.408.408,0,0,1,0-.057s0-.01,0-.014,0-.008,0-.012l.017-.062c.014-.031.023-.061.035-.09,0,0,0,0,0,0a8.634,8.634,0,0,0,.3-1.014,6.613,6.613,0,0,1,4.957-5.088,5.248,5.248,0,0,0,2.783-1.562,5.01,5.01,0,0,0,1.384-2.4.044.044,0,0,1,0-.013c.007-.028.014-.057.022-.084,0,0,0,0,0-.006v0l0-.011a0,0,0,0,0,0,0l.011-.023a.523.523,0,0,1,.044-.072s.005-.005.005-.008l.021-.023.014-.015c.011-.013.023-.023.035-.035s0,0,0,0l.014-.011a.024.024,0,0,0,.008-.005l0,0,.019-.014.005,0,.015-.01h.5a.484.484,0,0,1,.237.417.586.586,0,0,1-.005.069v0a0,0,0,0,1,0,0,.02.02,0,0,1,0,.01c-.007.032-.015.064-.025.094a5.882,5.882,0,0,1-1.625,2.827,6.129,6.129,0,0,1-3.219,1.821,5.648,5.648,0,0,0-4.273,4.387,9.732,9.732,0,0,1-.35,1.182.026.026,0,0,1,0,.01s0,.007,0,.01,0,0,0,0a.156.156,0,0,0-.01.025c-.005.008-.008.018-.014.026s0,.006,0,.008a.593.593,0,0,1-.039.054s0,0,0,0a.042.042,0,0,0-.011.012s0,0,0,.006a.084.084,0,0,0-.011.014l-.015.014-.008.007c-.011.012-.029.025-.043.037h0s0,0,0,0l-.01.005-.025.018H543.1A.483.483,0,0,1,542.862,158.877Z" transform="translate(-442.829 -127.599)" fill="#cb6586"/>
    <path id="Tracé_273" data-name="Tracé 273" d="M532.211,148.27s0,0,0,0-.024.022-.035.035a5.223,5.223,0,0,1-2.683,1.464,6.608,6.608,0,0,0-4.957,5.087,5.262,5.262,0,0,1-1.491,2.823c-.1.105-.2.2-.3.291,0,0,0,0,0,0s-.023.022-.035.035-.023.026-.035.039,0,.005-.005.008a.542.542,0,0,0-.055.1,0,0,0,0,1,0,0,.063.063,0,0,0,0,.015.452.452,0,0,0-.026.1s0,.01,0,.014a.412.412,0,0,0,0,.057.486.486,0,0,0,.484.487.52.52,0,0,0,.125-.015.361.361,0,0,0,.057-.018l.011,0,0,0a.192.192,0,0,0,.039-.018.294.294,0,0,0,.044-.03q.048-.042.1-.087c.1-.091.2-.191.3-.3a6.128,6.128,0,0,0,1.737-3.267,5.643,5.643,0,0,1,4.273-4.385,6.1,6.1,0,0,0,3.068-1.672h0c.031-.029.061-.059.093-.091a.443.443,0,0,0,.04-.057l0-.008a.365.365,0,0,0,.029-.064.025.025,0,0,0,0-.01c0-.011.008-.022.011-.033a.214.214,0,0,0,.008-.05,0,0,0,0,0,0,0,.606.606,0,0,0,.006-.073.485.485,0,0,0-.237-.417h-.5Z" transform="translate(-426.644 -127.599)" fill="#cb6586"/>
    <path id="Tracé_274" data-name="Tracé 274" d="M522.593,150.611a.376.376,0,0,1,0-.057s0-.01,0-.014a.462.462,0,0,1,.026-.1v0l0-.011a0,0,0,0,0,0,0l.011-.023a6.215,6.215,0,0,1,1.293-1.849c.077-.079.152-.154.228-.226.023-.023.048-.046.073-.069l0,0,.029-.026h.513a.484.484,0,0,1,.237.417.619.619,0,0,1-.006.073,0,0,0,0,1,0,0,.214.214,0,0,1-.008.05.336.336,0,0,1-.011.033.025.025,0,0,1,0,.01.388.388,0,0,1-.029.064l0,.008a.449.449,0,0,1-.04.057l-.011.013a.008.008,0,0,1,0,.005l-.076.072h0c-.064.061-.127.125-.192.191a5.25,5.25,0,0,0-1.088,1.549l-.032.073,0,.008a.407.407,0,0,1-.051.069.007.007,0,0,1,0,.006.159.159,0,0,1-.026.028l-.007.007c-.014.014-.032.028-.047.04h0a.043.043,0,0,1-.01.005.274.274,0,0,1-.044.031.2.2,0,0,1-.039.018l0,0-.011,0a.394.394,0,0,1-.057.018.519.519,0,0,1-.125.015A.486.486,0,0,1,522.593,150.611Z" transform="translate(-426.66 -127.599)" fill="#cb6586"/>
    <path id="Tracé_275" data-name="Tracé 275" d="M522.595,158.1a.385.385,0,0,1,0-.057s0-.01,0-.014a.458.458,0,0,1,.026-.1v0l0-.011a0,0,0,0,0,0,0l.011-.024a.5.5,0,0,1,.044-.072s.006-.006.006-.008.022-.026.035-.039.023-.023.035-.035,0,0,0,0l.014-.011.008-.006.022-.017.006,0,.026-.017.028-.015h0a.429.429,0,0,1,.119-.039.388.388,0,0,1,.088-.01.489.489,0,0,1,.49.487.618.618,0,0,1-.006.073,0,0,0,0,1,0,0,.211.211,0,0,1-.008.05.318.318,0,0,1-.011.033.025.025,0,0,1,0,.01.38.38,0,0,1-.029.064l0,.008a.425.425,0,0,1-.051.069.007.007,0,0,1,0,.005.159.159,0,0,1-.026.028l-.007.007c-.014.014-.032.028-.047.04h0a.055.055,0,0,1-.01.006.27.27,0,0,1-.044.03.19.19,0,0,1-.039.018l0,0-.011,0a.346.346,0,0,1-.057.018.517.517,0,0,1-.125.015A.486.486,0,0,1,522.595,158.1Z" transform="translate(-426.662 -135.092)" fill="#cb6586"/>
    <path id="Tracé_276" data-name="Tracé 276" d="M522.575,196.322a.4.4,0,0,1,0-.057s0-.01,0-.014a.433.433,0,0,1,.026-.1.07.07,0,0,1,0-.015,0,0,0,0,0,0,0,.532.532,0,0,1,.055-.1s.005-.005.005-.008.022-.026.035-.039.024-.023.035-.035,0,0,0,0l.014-.011.008-.005.022-.017.005,0,.026-.017.028-.015h0a.434.434,0,0,1,.119-.039.389.389,0,0,1,.089-.01.488.488,0,0,1,.49.487.626.626,0,0,1-.005.073s0,0,0,0a.205.205,0,0,1-.008.05c0,.014-.008.029-.014.043a.494.494,0,0,1-.033.072.44.44,0,0,1-.051.069.007.007,0,0,1,0,.005.158.158,0,0,1-.026.028l-.007.007c-.014.014-.032.028-.047.04h0l-.01.005a.281.281,0,0,1-.044.031.2.2,0,0,1-.039.018l0,0-.011,0a.4.4,0,0,1-.057.018.528.528,0,0,1-.124.015A.486.486,0,0,1,522.575,196.322Z" transform="translate(-426.646 -165.578)" fill="#cb6586"/>
    <path id="Tracé_277" data-name="Tracé 277" d="M569.376,148.362a.384.384,0,0,1,0-.057s0-.01,0-.014a.46.46,0,0,1,.026-.1v0l0-.011a0,0,0,0,0,0,0c0-.008.008-.017.011-.023a.546.546,0,0,1,.044-.072s.006-.005.006-.008.022-.026.035-.039.023-.023.035-.035,0,0,0,0l.014-.011.008-.005.022-.017.005,0,.015-.01.011-.007.027-.015h0a.436.436,0,0,1,.119-.039.39.39,0,0,1,.089-.01.479.479,0,0,1,.253.071.485.485,0,0,1,.237.417.619.619,0,0,1-.006.073,0,0,0,0,1,0,0,.2.2,0,0,1-.009.05.305.305,0,0,1-.011.033.025.025,0,0,1,0,.01.364.364,0,0,1-.029.064l0,.008a.448.448,0,0,1-.04.057l-.011.013a.007.007,0,0,1,0,.005.161.161,0,0,1-.026.028l-.007.007c-.014.014-.031.026-.046.039h0a.052.052,0,0,1-.01.005.28.28,0,0,1-.044.031.2.2,0,0,1-.039.018l0,0-.011,0a.382.382,0,0,1-.057.018.52.52,0,0,1-.125.015A.486.486,0,0,1,569.376,148.362Z" transform="translate(-463.979 -127.321)" fill="#cb6586"/>
    <path id="Tracé_278" data-name="Tracé 278" d="M529.762,148.362a.376.376,0,0,1,0-.057s0-.01,0-.014a.453.453,0,0,1,.026-.1v0l0-.011a0,0,0,0,0,0,0c0-.008.008-.017.011-.023a.552.552,0,0,1,.044-.072s.006-.005.006-.008l.021-.023a.114.114,0,0,1,.014-.015c.011-.013.023-.023.035-.035s0,0,0,0l.014-.011.008-.005,0,0,.019-.014.006,0,.015-.01.011-.007.028-.015h0a.434.434,0,0,1,.119-.039.389.389,0,0,1,.088-.01.479.479,0,0,1,.253.071.484.484,0,0,1,.237.417.619.619,0,0,1-.006.073,0,0,0,0,1,0,0,.214.214,0,0,1-.008.05.337.337,0,0,1-.011.033.027.027,0,0,1,0,.01.387.387,0,0,1-.029.064l0,.008a.436.436,0,0,1-.04.057l-.011.013a.008.008,0,0,1,0,.005.169.169,0,0,1-.027.028l-.007.007c-.012.012-.029.025-.043.037h-.007a.049.049,0,0,1-.01.005.271.271,0,0,1-.044.031.2.2,0,0,1-.039.018l0,0-.011,0a.369.369,0,0,1-.057.018.519.519,0,0,1-.125.015A.486.486,0,0,1,529.762,148.362Z" transform="translate(-432.379 -127.321)" fill="#cb6586"/>
    <path id="Tracé_279" data-name="Tracé 279" d="M589.692,148.362a.384.384,0,0,1,0-.057s0-.01,0-.014a.047.047,0,0,1,0-.013c.007-.028.014-.057.022-.084,0,0,0,0,0-.006v0l0-.011a0,0,0,0,0,0,0l.011-.023a.521.521,0,0,1,.044-.072s.005-.005.005-.008l.021-.023a.133.133,0,0,1,.014-.015c.011-.013.023-.023.035-.035s0,0,0,0l.014-.011.008-.005,0,0,.019-.014.005,0,.015-.01.011-.007.028-.015h0a.437.437,0,0,1,.119-.039.389.389,0,0,1,.089-.01.478.478,0,0,1,.253.071.484.484,0,0,1,.237.417.585.585,0,0,1-.005.069v0a0,0,0,0,1,0,0h0a.018.018,0,0,1,0,.008.212.212,0,0,1-.007.041.321.321,0,0,1-.011.033.029.029,0,0,1,0,.01l0,.01a.26.26,0,0,1-.025.054l0,.008a.454.454,0,0,1-.04.057l-.011.013a.008.008,0,0,1,0,.005.169.169,0,0,1-.026.028l-.007.007c-.012.012-.029.025-.043.037h-.007a.043.043,0,0,1-.01.005.264.264,0,0,1-.044.031.2.2,0,0,1-.039.018l0,0-.011,0a.376.376,0,0,1-.057.018.519.519,0,0,1-.124.015A.486.486,0,0,1,589.692,148.362Z" transform="translate(-480.185 -127.321)" fill="#cb6586"/>
    <path id="Tracé_280" data-name="Tracé 280" d="M607.875,148.362a.411.411,0,0,1,0-.057s0-.01,0-.014a.039.039,0,0,1,0-.013c.007-.028.014-.057.022-.084,0,0,0,0,0-.006v0s0-.007,0-.011a0,0,0,0,0,0,0l.011-.023c.007-.014.014-.025.021-.037s.015-.023.023-.035.005-.005.005-.008l.021-.023a.133.133,0,0,1,.014-.015c.011-.013.023-.023.035-.035s0,0,0,0l.014-.011s0,0,0,0,0,0,.007,0l0,0,.019-.014.005,0,.015-.01.011-.007.028-.015h0a.436.436,0,0,1,.119-.039.391.391,0,0,1,.089-.01.479.479,0,0,1,.253.071.484.484,0,0,1,.237.417.549.549,0,0,1-.005.069v0a0,0,0,0,1,0,0h0a.017.017,0,0,1,0,.008.212.212,0,0,1-.007.041.32.32,0,0,1-.011.033.025.025,0,0,1,0,.01l0,.01a.256.256,0,0,1-.025.054l0,.008a.468.468,0,0,1-.04.057l-.011.013a.007.007,0,0,1,0,.005.117.117,0,0,1-.011.014l-.015.014-.007.007c-.013.012-.029.025-.043.037h-.007a.054.054,0,0,1-.01.005.283.283,0,0,1-.044.031.2.2,0,0,1-.039.018l0,0-.011,0a.376.376,0,0,1-.057.018.517.517,0,0,1-.124.015A.486.486,0,0,1,607.875,148.362Z" transform="translate(-494.69 -127.321)" fill="#cb6586"/>
    <path id="Tracé_281" data-name="Tracé 281" d="M559.567,198.969a.412.412,0,0,1,0-.057s0-.01,0-.014a.048.048,0,0,1,0-.013c.007-.027.014-.057.022-.084,0,0,0,0,0-.005v0l0-.011a0,0,0,0,0,0,0l.011-.023c0-.007.007-.013.008-.018a.171.171,0,0,0,.012-.019c.008-.013.015-.023.023-.035s.005-.005.005-.008l.021-.023a.131.131,0,0,1,.014-.015c.011-.012.023-.023.035-.035s0,0,0,0l.014-.011a0,0,0,0,0,0,0s0,0,.007,0l0,0,.019-.014.005,0,.015-.01.011-.007.028-.015h0a.43.43,0,0,1,.119-.039.389.389,0,0,1,.089-.01.478.478,0,0,1,.253.071.484.484,0,0,1,.237.417.553.553,0,0,1-.005.069v0a0,0,0,0,1,0,0h0a.017.017,0,0,1,0,.008.213.213,0,0,1-.007.041.252.252,0,0,1-.011.033.023.023,0,0,1,0,.01l0,.01-.011.028a.289.289,0,0,1-.014.026l0,.008a.426.426,0,0,1-.037.054l0,0-.011.013a.007.007,0,0,1,0,.005l-.011.014-.015.014-.007.007c-.013.013-.029.025-.043.037h-.007l-.01.005a.119.119,0,0,1-.025.018l-.019.013a.188.188,0,0,1-.039.018l0,0-.011,0a.4.4,0,0,1-.057.018.526.526,0,0,1-.124.015.47.47,0,0,1-.25-.071A.486.486,0,0,1,559.567,198.969Z" transform="translate(-456.154 -167.69)" fill="#cb6586"/>
    <path id="Tracé_282" data-name="Tracé 282" d="M542.885,198.817l-.017.062s0,.008,0,.012,0,.01,0,.014a.408.408,0,0,0,0,.057.483.483,0,0,0,.234.417h0a.472.472,0,0,0,.248.069.521.521,0,0,0,.125-.015.39.39,0,0,0,.055-.018l.011,0,.005,0a.158.158,0,0,0,.037-.018.119.119,0,0,0,.018-.011h0l.025-.018.01-.005s0,0,0,0h0c.014-.012.032-.025.043-.037l.008-.007.015-.014a.084.084,0,0,1,.011-.014s0,0,0-.006a.041.041,0,0,1,.011-.012s0,0,0,0a.593.593,0,0,0,.039-.054.026.026,0,0,1,0-.008c.006-.008.008-.018.014-.026a.175.175,0,0,1,.01-.025s0,0,0,0,0-.007,0-.01a.026.026,0,0,0,0-.01.308.308,0,0,0,.011-.033.208.208,0,0,0,.006-.041.01.01,0,0,0,0-.008h0s0,0,0,0v0a.552.552,0,0,0,.006-.069.484.484,0,0,0-.237-.417.477.477,0,0,0-.253-.071.39.39,0,0,0-.089.01.4.4,0,0,0-.119.039h0l-.029.015a.041.041,0,0,1-.011.007.115.115,0,0,0-.014.01l-.005,0-.021.014s0,0,0,0,0,0-.006,0a0,0,0,0,1,0,0l-.014.011s0,0,0,0-.024.022-.035.035a.066.066,0,0,0-.014.015l-.021.023s0,.005-.005.008a.314.314,0,0,0-.023.035s-.006.008-.01.013,0,0,0,0Z" transform="translate(-442.829 -167.684)" fill="#cb6586"/>
    <g id="Groupe_363" data-name="Groupe 363" transform="translate(143.349 19.94)">
      <path id="Tracé_283" data-name="Tracé 283" d="M896.793,157.279a.506.506,0,0,1-.257-.942,17.9,17.9,0,0,0,8.284-11.113.506.506,0,1,1,.983.24,18.914,18.914,0,0,1-8.754,11.745A.5.5,0,0,1,896.793,157.279Z" transform="translate(-868.105 -144.838)" fill="#338591"/>
      <path id="Tracé_284" data-name="Tracé 284" d="M773.164,150.635H757.485a.506.506,0,1,1,0-1.012h15.679a11.933,11.933,0,0,0,9.437-4.591.506.506,0,0,1,.8.625A12.939,12.939,0,0,1,773.164,150.635Z" transform="translate(-756.979 -144.839)" fill="#338591"/>
      <path id="Tracé_285" data-name="Tracé 285" d="M772.119,146.008H757.485a.506.506,0,1,1,0-1.011h14.634a8.512,8.512,0,0,0,1.588-.149.506.506,0,1,1,.189.994A9.539,9.539,0,0,1,772.119,146.008Z" transform="translate(-756.979 -144.838)" fill="#338591"/>
      <path id="Tracé_286" data-name="Tracé 286" d="M774.282,155.2h-16.8a.506.506,0,1,1,0-1.012h16.8a15.4,15.4,0,0,0,14.009-9.049.506.506,0,1,1,.922.416A16.408,16.408,0,0,1,774.282,155.2Z" transform="translate(-756.979 -144.838)" fill="#338591"/>
    </g>
    <g id="Groupe_364" data-name="Groupe 364">
      <path id="Tracé_287" data-name="Tracé 287" d="M49.736,58.7h5.2v1.353H48.384v-12.1h1.352Z" transform="translate(-48.384 -47.611)" fill="#7a7a7a"/>
      <path id="Tracé_288" data-name="Tracé 288" d="M99.3,60.034H97.827l5.2-12.106,0-.006,0,.006,5.059,12.106h-1.466l-1.175-2.813h-4.944Zm1.789-4.166h3.8l-1.872-4.482Z" transform="translate(-87.825 -47.588)" fill="#7a7a7a"/>
      <path id="Tracé_289" data-name="Tracé 289" d="M209.573,59.389h-1.352V47.12l.155.168,4.635,5.04,4.635-5.04.155-.168V59.389h-1.352v-8.8l-3.438,3.739-3.438-3.739Z" transform="translate(-175.886 -46.948)" fill="#7a7a7a"/>
      <path id="Tracé_290" data-name="Tracé 290" d="M274.053,60.034h-1.471l5.2-12.106,0-.006,0,.006,5.059,12.106H281.38L280.2,57.221h-4.944Zm1.789-4.166h3.8l-1.872-4.482Z" transform="translate(-227.227 -47.588)" fill="#7a7a7a"/>
      <path id="Tracé_291" data-name="Tracé 291" d="M340.353,60.052v-12.1H341.7v12.1Z" transform="translate(-281.288 -47.611)" fill="#7a7a7a"/>
      <path id="Tracé_292" data-name="Tracé 292" d="M361.495,56.6l1.345-.142a2.665,2.665,0,0,0,5.3-.551c-.165-1.571-1.219-2.046-2.689-2.547a7.764,7.764,0,0,1-1.011-.395c-1.682-.859-2.343-2.249-1.812-3.807a2.955,2.955,0,0,1,1.928-1.858,3.394,3.394,0,0,1,1.872-.056c.052.013.11.038.166.056a3.179,3.179,0,0,1,2.146,2.9l-1.351.029a1.873,1.873,0,0,0-1.289-1.674,1.775,1.775,0,0,0-2.192,1.038c-.2.579-.292,1.434,1.148,2.171a6.528,6.528,0,0,0,.831.319c1.327.451,3.331,1.134,3.6,3.687a4.006,4.006,0,0,1-6.367,3.639c-.052-.038-.109-.067-.16-.108A3.98,3.98,0,0,1,361.495,56.6Z" transform="translate(-298.152 -46.966)" fill="#7a7a7a"/>
      <path id="Tracé_293" data-name="Tracé 293" d="M418.183,54.317a5.965,5.965,0,1,1,5.965,5.965A5.972,5.972,0,0,1,418.183,54.317Zm1.352,0a4.613,4.613,0,1,0,4.613-4.613A4.619,4.619,0,0,0,419.535,54.317Z" transform="translate(-343.372 -47.931)" fill="#7a7a7a"/>
      <path id="Tracé_294" data-name="Tracé 294" d="M495.575,58.713h-1.352V46.272l.269.34,6.783,8.551v-8.57h1.352v12.45l-.259-.326-6.794-8.565Z" transform="translate(-404.03 -46.272)" fill="#7a7a7a"/>
      <path id="Tracé_295" data-name="Tracé 295" d="M596.762,60.373H595.41V48.352h3.908a3.321,3.321,0,1,1,0,6.641h-2.556ZM599.318,49.7h-2.556v3.938h2.556a1.969,1.969,0,1,0,0-3.938Z" transform="translate(-484.746 -47.931)" fill="#7a7a7a"/>
      <path id="Tracé_296" data-name="Tracé 296" d="M641.125,60.034h-1.471l5.2-12.106,0-.006,0,.006,5.059,12.106h-1.466l-1.175-2.813h-4.944Zm1.789-4.166h3.8l-1.872-4.482Z" transform="translate(-520.04 -47.588)" fill="#7a7a7a"/>
      <path id="Tracé_297" data-name="Tracé 297" d="M707.424,56.6l1.345-.142a2.665,2.665,0,0,0,5.3-.551c-.165-1.571-1.219-2.046-2.69-2.547a7.754,7.754,0,0,1-1.011-.395c-1.682-.859-2.343-2.249-1.812-3.807a2.954,2.954,0,0,1,1.928-1.858,3.393,3.393,0,0,1,1.872-.056c.052.013.11.038.166.056a3.179,3.179,0,0,1,2.146,2.9l-1.351.029a1.873,1.873,0,0,0-1.289-1.674,1.775,1.775,0,0,0-2.192,1.038c-.2.579-.292,1.434,1.148,2.171a6.527,6.527,0,0,0,.831.319c1.327.451,3.331,1.134,3.6,3.687a4.006,4.006,0,0,1-6.367,3.639c-.052-.038-.109-.067-.16-.108A3.981,3.981,0,0,1,707.424,56.6Z" transform="translate(-574.1 -46.966)" fill="#7a7a7a"/>
      <path id="Tracé_298" data-name="Tracé 298" d="M764.113,56.6l1.345-.142a2.665,2.665,0,0,0,5.3-.551c-.165-1.571-1.219-2.046-2.689-2.547a7.74,7.74,0,0,1-1.011-.395c-1.682-.859-2.343-2.249-1.813-3.807a2.955,2.955,0,0,1,1.928-1.858,3.394,3.394,0,0,1,1.872-.056c.052.013.11.038.166.056a3.179,3.179,0,0,1,2.146,2.9l-1.351.029a1.873,1.873,0,0,0-1.289-1.674,1.775,1.775,0,0,0-2.192,1.038c-.2.579-.292,1.434,1.148,2.171a6.536,6.536,0,0,0,.831.319c1.327.451,3.331,1.134,3.6,3.687a4.006,4.006,0,0,1-6.367,3.639c-.052-.038-.109-.067-.16-.108A3.98,3.98,0,0,1,764.113,56.6Z" transform="translate(-619.321 -46.966)" fill="#7a7a7a"/>
      <path id="Tracé_299" data-name="Tracé 299" d="M820.8,60.052v-12.1h1.352v12.1Z" transform="translate(-664.541 -47.611)" fill="#7a7a7a"/>
      <path id="Tracé_300" data-name="Tracé 300" d="M849.567,60.057,844.5,47.951h1.465l3.673,8.776,3.62-8.776h1.462l-4.995,12.106-.079.192Z" transform="translate(-683.445 -47.611)" fill="#7a7a7a"/>
      <path id="Tracé_301" data-name="Tracé 301" d="M912.1,48.346h6.553V49.7h-5.2v4.732h3.19v1.353h-3.19v3.141h5.2v1.353H912.1Z" transform="translate(-737.37 -47.926)" fill="#7a7a7a"/>
    </g>
    <path id="Tracé_302" data-name="Tracé 302" d="M89.924,152.791a19.666,19.666,0,0,1-14.548-6.544.506.506,0,1,1,.751-.677,18.431,18.431,0,0,0,27.594,0,.506.506,0,1,1,.751.677A19.666,19.666,0,0,1,89.924,152.791Z" transform="translate(-69.811 -125.349)" fill="#f1c2b0"/>
    <path id="Tracé_303" data-name="Tracé 303" d="M119.56,148.054a14.393,14.393,0,0,1-6.773-1.7.506.506,0,0,1,.477-.892,13.325,13.325,0,0,0,12.59,0,.506.506,0,0,1,.477.892A14.393,14.393,0,0,1,119.56,148.054Z" transform="translate(-99.545 -125.348)" fill="#f1c2b0"/>
    <path id="Tracé_304" data-name="Tracé 304" d="M69.2,161.1a23.751,23.751,0,0,1-5.518-.647,24.444,24.444,0,0,1-13.98-9.392c-.074-.1-.15-.2-.223-.309a.506.506,0,0,1,.826-.584c.069.1.141.2.212.293a23.432,23.432,0,0,0,13.4,9.008,22.91,22.91,0,0,0,10.56,0A23.382,23.382,0,0,0,88.072,150.2c.05-.068.094-.13.138-.192l.42.283.407.3c-.047.067-.095.134-.144.2a24.388,24.388,0,0,1-14.174,9.655A23.7,23.7,0,0,1,69.2,161.1Z" transform="translate(-49.187 -128.979)" fill="#f1c2b0"/>
    <path id="Tracé_305" data-name="Tracé 305" d="M226.1,187.742a.506.506,0,0,1-.3-.915,27.988,27.988,0,0,0,2.889-2.4c.054-.049.1-.092.143-.136a.506.506,0,1,1,.7.729c-.05.048-.1.1-.153.145a28.881,28.881,0,0,1-2.987,2.484A.5.5,0,0,1,226.1,187.742Z" transform="translate(-189.744 -156.254)" fill="#f1c2b0"/>
    <path id="Tracé_306" data-name="Tracé 306" d="M53,187.687a.5.5,0,0,1-.3-.1,28.865,28.865,0,0,1-2.935-2.434c-.071-.065-.148-.138-.223-.211a.506.506,0,0,1,.705-.725c.068.066.138.132.208.2a27.974,27.974,0,0,0,2.838,2.354.506.506,0,0,1-.3.915Z" transform="translate(-49.187 -156.2)" fill="#f1c2b0"/>
  </g>
</svg>
