<svg xmlns="http://www.w3.org/2000/svg" width="180.548" height="32.249" viewBox="0 0 180.548 32.249">
  <g id="Groupe_3" data-name="Groupe 3" transform="translate(0 1)">
    <g id="Groupe_5" data-name="Groupe 5" transform="translate(-1018.937 318.039)">
      <path id="Tracé_198" data-name="Tracé 198" d="M1260.624-189.729a.5.5,0,0,0-.712,0,.5.5,0,0,0,0,.712l4.9,4.872a.5.5,0,0,0,.355.147.5.5,0,0,0,.357-.149.5.5,0,0,0,0-.712Z" transform="translate(-192.307 -103.14)" fill="#fff"/>
      <path id="Tracé_199" data-name="Tracé 199" d="M1423.87-189.729l-4.9,4.872a.5.5,0,0,0,0,.712.5.5,0,0,0,.357.149.5.5,0,0,0,.355-.147l4.9-4.872a.5.5,0,0,0,0-.712A.5.5,0,0,0,1423.87-189.729Z" transform="translate(-319.317 -103.14)" fill="#fff"/>
      <path id="Tracé_200" data-name="Tracé 200" d="M1260.8-218.774a.5.5,0,0,0-.712,0,.5.5,0,0,0,0,.712l10.782,10.724a.5.5,0,0,0,.355.147.5.5,0,0,0,.357-.149.5.5,0,0,0,0-.712Z" transform="translate(-192.449 -79.947)" fill="#fff"/>
      <path id="Tracé_201" data-name="Tracé 201" d="M1400.741-218.774l-10.781,10.724a.5.5,0,0,0,0,.712.5.5,0,0,0,.357.149.5.5,0,0,0,.355-.147l10.781-10.724a.5.5,0,0,0,0-.712A.5.5,0,0,0,1400.741-218.774Z" transform="translate(-296.151 -79.947)" fill="#fff"/>
      <path id="Tracé_202" data-name="Tracé 202" d="M1286.893-218.918a.5.5,0,0,0-.712,0,.5.5,0,0,0,0,.712l10.81,10.753a.5.5,0,0,0,.355.147.5.5,0,0,0,.357-.149.5.5,0,0,0,0-.712Z" transform="translate(-213.282 -79.832)" fill="#fff"/>
      <path id="Tracé_203" data-name="Tracé 203" d="M1374.9-218.916a.5.5,0,0,0-.712,0l-10.809,10.753a.5.5,0,0,0,0,.712.5.5,0,0,0,.357.149.5.5,0,0,0,.355-.147L1374.9-218.2A.5.5,0,0,0,1374.9-218.916Z" transform="translate(-274.924 -79.832)" fill="#fff"/>
      <path id="Tracé_204" data-name="Tracé 204" d="M1329.467-218.918a.5.5,0,0,0-.712,0L1321.4-211.6l-7.357-7.318a.5.5,0,0,0-.712,0,.5.5,0,0,0,0,.712l8.067,8.025,8.067-8.025A.5.5,0,0,0,1329.467-218.918Z" transform="translate(-234.961 -79.83)" fill="#fff"/>
      <path id="Tracé_205" data-name="Tracé 205" d="M1344.339-218.92l-2.1,2.087-2.1-2.087a.5.5,0,0,0-.712,0,.5.5,0,0,0,0,.712l2.808,2.793,2.808-2.793a.5.5,0,0,0,0-.712A.5.5,0,0,0,1344.339-218.92Z" transform="translate(-255.804 -79.83)" fill="#fff"/>
      <path id="Tracé_206" data-name="Tracé 206" d="M1754.6-190.064a.546.546,0,0,0,.146-.047l-.074-.187-.119.039Z" transform="translate(-587.403 -102.802)" fill="#fff"/>
      <path id="Tracé_207" data-name="Tracé 207" d="M1577.1-217.4l-10.2,10.2a.5.5,0,0,0,0,.712.5.5,0,0,0,.356.147.5.5,0,0,0,.356-.147l10.2-10.2a.5.5,0,0,0,0-.712A.5.5,0,0,0,1577.1-217.4Z" transform="translate(-437.443 -81.042)" fill="#fff"/>
      <path id="Tracé_208" data-name="Tracé 208" d="M1634.166-217.4a.5.5,0,0,0-.712,0l-10.2,10.2a.5.5,0,0,0,0,.712.5.5,0,0,0,.356.147.5.5,0,0,0,.356-.147l10.2-10.2A.5.5,0,0,0,1634.166-217.4Z" transform="translate(-482.441 -81.042)" fill="#fff"/>
      <path id="Tracé_209" data-name="Tracé 209" d="M1662.633-200.85a.5.5,0,0,0-.712,0L1656-194.932a.5.5,0,0,0,0,.712.5.5,0,0,0,.356.147.5.5,0,0,0,.356-.147l5.918-5.918A.5.5,0,0,0,1662.633-200.85Z" transform="translate(-508.592 -94.259)" fill="#fff"/>
      <path id="Tracé_210" data-name="Tracé 210" d="M1680.561-172.8l-1.214,1.215a.5.5,0,0,0,0,.712.5.5,0,0,0,.356.147.5.5,0,0,0,.356-.147l1.214-1.215a.5.5,0,0,0,0-.712A.5.5,0,0,0,1680.561-172.8Z" transform="translate(-527.232 -116.655)" fill="#fff"/>
      <path id="Tracé_211" data-name="Tracé 211" d="M1599.736-189.067l-4.49,4.492a.5.5,0,0,0,0,.712.5.5,0,0,0,.356.147.5.5,0,0,0,.356-.148l4.489-4.491a.5.5,0,0,0,0-.712A.5.5,0,0,0,1599.736-189.067Z" transform="translate(-460.077 -103.667)" fill="#fff"/>
      <path id="Tracé_212" data-name="Tracé 212" d="M1635.98-217.4l-2.512,2.511a.5.5,0,0,0,0,.712.5.5,0,0,0,.356.147.5.5,0,0,0,.356-.147l2.512-2.512a.5.5,0,0,0,0-.712A.5.5,0,0,0,1635.98-217.4Z" transform="translate(-490.597 -81.042)" fill="#fff"/>
      <path id="Tracé_213" data-name="Tracé 213" d="M1539.462-214.08a5.154,5.154,0,0,1,1.232-2.541l.011-.014a.007.007,0,0,0,0-.005l.011-.013a.463.463,0,0,0,.04-.056l0-.008a.284.284,0,0,0,.025-.054l0-.01a.024.024,0,0,0,0-.01.3.3,0,0,0,.011-.033.2.2,0,0,0,.007-.041.017.017,0,0,0,0-.008h0a0,0,0,0,0,0,0v0a.55.55,0,0,0,.006-.069.482.482,0,0,0-.236-.415.475.475,0,0,0-.252-.07.387.387,0,0,0-.088.01.426.426,0,0,0-.119.038h0l-.028.015-.011.007-.015.01-.006,0-.019.014h0l-.008.005a0,0,0,0,1,0,0l-.014.011s0,0,0,0-.024.022-.035.034l-.014.015a.3.3,0,0,1-.021.024s0,.005-.005.008-.015.022-.023.034a6.024,6.024,0,0,0-1.4,2.894,5.163,5.163,0,0,1-1.466,2.8,5.17,5.17,0,0,1-2.755,1.544,6.039,6.039,0,0,0-3.192,1.8,6.851,6.851,0,0,0-.923,1.163.155.155,0,0,1-.013.019c0,.005-.005.011-.008.018a.236.236,0,0,1-.011.023,0,0,0,0,1,0,0l0,.011v0s0,0,0,.006c-.008.027-.015.056-.022.084a.038.038,0,0,0,0,.012s0,.01,0,.014a.365.365,0,0,0,0,.056.484.484,0,0,0,.233.415.469.469,0,0,0,.25.07.518.518,0,0,0,.124-.015.418.418,0,0,0,.057-.018l.011,0,0,0a.208.208,0,0,0,.039-.018l.019-.012a.119.119,0,0,0,.025-.018.051.051,0,0,0,.01-.005h.007c.014-.012.03-.025.043-.037l.007-.007.015-.014a.1.1,0,0,0,.011-.014.007.007,0,0,0,0-.006l.011-.012,0,0a.419.419,0,0,0,.037-.054l0-.008a.228.228,0,0,0,.014-.026,5.794,5.794,0,0,1,.76-.947,5.154,5.154,0,0,1,2.754-1.544,6.048,6.048,0,0,0,3.192-1.8A6.035,6.035,0,0,0,1539.462-214.08Z" transform="translate(-408.189 -81.132)" fill="#fff"/>
      <path id="Tracé_214" data-name="Tracé 214" d="M1522.167-213.956a5.858,5.858,0,0,0,1.618-2.816l0-.01a.024.024,0,0,0,0-.01.3.3,0,0,0,.011-.033.2.2,0,0,0,.007-.041.019.019,0,0,0,0-.01,0,0,0,0,0,0,0v0a.528.528,0,0,0,.006-.069.482.482,0,0,0-.236-.415.476.476,0,0,0-.252-.07.389.389,0,0,0-.088.01.427.427,0,0,0-.118.038h0l-.028.015-.011.007-.015.01-.005,0-.019.014,0,0-.008.006-.014.011s0,0,0,0-.023.022-.035.034l-.014.015-.021.024s0,.005-.005.008a.5.5,0,0,0-.044.072c0,.007-.007.015-.011.024a0,0,0,0,1,0,0l0,.011v0s0,0,0,.005c-.008.028-.015.056-.022.084a.045.045,0,0,0,0,.012,4.989,4.989,0,0,1-1.378,2.393,5.227,5.227,0,0,1-2.772,1.556,6.111,6.111,0,0,0-3.207,1.815,6.112,6.112,0,0,0-1.73,3.253,8.632,8.632,0,0,1-.295,1.01h0a.015.015,0,0,0,0,0l-.034.089-.017.062s0,.008,0,.012a.023.023,0,0,1,0,.007.028.028,0,0,0,0,.007c0,.009,0,.019,0,.028s0,.019,0,.028a.481.481,0,0,0,.233.415h0a.471.471,0,0,0,.247.069.516.516,0,0,0,.124-.015.356.356,0,0,0,.055-.018l.011,0,.006,0a.158.158,0,0,0,.037-.018.08.08,0,0,0,.018-.011h0l.01-.007.015-.011.005,0,0,0s0,0,0,0h0c.014-.012.032-.025.043-.037l.008-.007.015-.014a.074.074,0,0,1,.011-.014s0,0,0-.005a.046.046,0,0,1,.011-.012s0,0,0,0a.617.617,0,0,0,.039-.054l0,0a.005.005,0,0,1,0,0c.005-.008.008-.018.014-.026a.211.211,0,0,1,.01-.025s0,0,0,0,0-.007,0-.01a.024.024,0,0,0,0-.01,9.572,9.572,0,0,0,.349-1.177,5.224,5.224,0,0,1,1.485-2.812,5.218,5.218,0,0,1,2.772-1.557A6.107,6.107,0,0,0,1522.167-213.956Z" transform="translate(-394.85 -81.132)" fill="#fff"/>
      <path id="Tracé_215" data-name="Tracé 215" d="M1500.27-214.895a6.078,6.078,0,0,0,3.056-1.665h0c.015-.013.032-.025.045-.039l.007-.007a.16.16,0,0,0,.026-.028.007.007,0,0,0,0-.005l.011-.013a.449.449,0,0,0,.04-.056l0,0,0,0a.382.382,0,0,0,.029-.063.029.029,0,0,0,0-.01.28.28,0,0,0,.011-.033.213.213,0,0,0,.008-.05s0,0,0,0a.641.641,0,0,0,.005-.073.477.477,0,0,0-.065-.242.482.482,0,0,0-.074-.1.5.5,0,0,0-.1-.076.476.476,0,0,0-.252-.07.389.389,0,0,0-.088.01.427.427,0,0,0-.118.038h0l-.027.015-.011.007h0l-.015.009-.005,0-.022.017-.008.006-.014.011s0,0,0,0-.023.022-.034.034a5.2,5.2,0,0,1-2.672,1.458,6.1,6.1,0,0,0-3.207,1.814,6.1,6.1,0,0,0-1.73,3.252,5.238,5.238,0,0,1-1.484,2.812c-.1.1-.2.2-.3.29,0,0,0,0,0,0s-.023.022-.034.034-.024.026-.034.039,0,.005-.006.008a.539.539,0,0,0-.055.1,0,0,0,0,1,0,0,.059.059,0,0,0,0,.015.455.455,0,0,0-.026.1s0,.01,0,.014a.363.363,0,0,0,0,.056.485.485,0,0,0,.386.475.477.477,0,0,0,.1.01.52.52,0,0,0,.124-.015.418.418,0,0,0,.056-.018l.011,0,0,0a.2.2,0,0,0,.039-.018.279.279,0,0,0,.044-.03.052.052,0,0,0,.01-.005h0a.6.6,0,0,0,.047-.04l.007-.007a.156.156,0,0,0,.026-.028.007.007,0,0,0,0-.006h0c.1-.091.2-.189.3-.294a6.1,6.1,0,0,0,1.73-3.254,5.237,5.237,0,0,1,1.484-2.812A5.226,5.226,0,0,1,1500.27-214.895Z" transform="translate(-378.649 -81.132)" fill="#fff"/>
      <path id="Tracé_216" data-name="Tracé 216" d="M1495.324-217.366a.475.475,0,0,0-.252-.07.387.387,0,0,0-.088.01.425.425,0,0,0-.119.038h0l-.028.015-.011.007h-.011l-.029.026,0,0-.008.006-.014.011s0,0,0,0-.023.022-.034.034a.141.141,0,0,0-.014.015c-.076.072-.15.146-.227.225a6.19,6.19,0,0,0-1.287,1.841c0,.007-.007.015-.011.024a0,0,0,0,1,0,0l0,.011v0a.429.429,0,0,0-.026.1s0,.01,0,.014a.383.383,0,0,0,0,.057.485.485,0,0,0,.386.475.48.48,0,0,0,.1.01.516.516,0,0,0,.124-.015.4.4,0,0,0,.057-.018l.011,0,0,0a.21.21,0,0,0,.039-.018.271.271,0,0,0,.044-.03l.01-.005h0c.015-.012.033-.026.047-.04l.007-.007a.168.168,0,0,0,.026-.027.007.007,0,0,0,0-.006.413.413,0,0,0,.051-.069l0-.008a.363.363,0,0,0,.029-.063.028.028,0,0,0,0-.009v0a5.22,5.22,0,0,1,1.082-1.539c.065-.066.128-.13.192-.19h0c.014-.012.031-.025.043-.037l.007-.007a.17.17,0,0,0,.026-.028.007.007,0,0,0,0-.005l.011-.013a.415.415,0,0,0,.04-.056l0-.008a.363.363,0,0,0,.029-.063.028.028,0,0,0,0-.01.242.242,0,0,0,.011-.033.2.2,0,0,0,.008-.05s0,0,0,0a.641.641,0,0,0,.005-.073A.482.482,0,0,0,1495.324-217.366Z" transform="translate(-378.665 -81.132)" fill="#fff"/>
      <path id="Tracé_217" data-name="Tracé 217" d="M1875.947-220.458a.5.5,0,0,0-.609.37,17.826,17.826,0,0,1-8.25,11.068.5.5,0,0,0-.179.689.5.5,0,0,0,.435.248.5.5,0,0,0,.255-.069,18.841,18.841,0,0,0,8.719-11.7A.5.5,0,0,0,1875.947-220.458Z" transform="translate(-677.066 -78.707)" fill="#fff"/>
      <path id="Tracé_218" data-name="Tracé 218" d="M1728.035-214.7h15.615a12.887,12.887,0,0,0,10.191-4.957.5.5,0,0,0-.085-.707.5.5,0,0,0-.707.085,11.885,11.885,0,0,1-9.4,4.572h-15.615a.5.5,0,0,0-.5.5A.5.5,0,0,0,1728.035-214.7Z" transform="translate(-565.826 -78.707)" fill="#fff"/>
      <path id="Tracé_219" data-name="Tracé 219" d="M1728.035-219.309h14.575a9.5,9.5,0,0,0,1.77-.166.5.5,0,0,0,.4-.589.5.5,0,0,0-.589-.4,8.47,8.47,0,0,1-1.582.148h-14.575a.5.5,0,0,0-.5.5A.5.5,0,0,0,1728.035-219.309Z" transform="translate(-565.826 -78.707)" fill="#fff"/>
      <path id="Tracé_220" data-name="Tracé 220" d="M1759.634-219.763a.5.5,0,0,0-.252-.666.5.5,0,0,0-.666.252,15.334,15.334,0,0,1-13.952,9.012h-16.729a.5.5,0,0,0-.5.5.5.5,0,0,0,.5.5h16.729A16.341,16.341,0,0,0,1759.634-219.763Z" transform="translate(-565.826 -78.706)" fill="#fff"/>
      <path id="Tracé_221" data-name="Tracé 221" d="M1025.463-306.654h-5.18V-317.36h-1.346v12.054h6.526Z" transform="translate(0 -1.341)" fill="#fff"/>
      <path id="Tracé_222" data-name="Tracé 222" d="M1071.048-308.128h4.924l1.171,2.8h1.46l-5.038-12.056,0-.006,0,.006-5.178,12.056h1.465Zm2.5-5.811,1.865,4.464h-3.782Z" transform="translate(-39.482 -1.318)" fill="#fff"/>
      <path id="Tracé_223" data-name="Tracé 223" d="M1183.544-313l-4.616-5.02-.155-.167v12.219h1.346v-8.767l3.424,3.724,3.424-3.724v8.767h1.346v-12.219l-.155.167Z" transform="translate(-127.633 -0.677)" fill="#fff"/>
      <path id="Tracé_224" data-name="Tracé 224" d="M1251.9-305.327h1.46l-5.038-12.056,0-.006,0,.006-5.178,12.056h1.464l1.2-2.8h4.924Zm-5.516-4.149,1.918-4.464,1.865,4.464Z" transform="translate(-179.027 -1.318)" fill="#fff"/>
      <rect id="Rectangle_4" data-name="Rectangle 4" width="1.346" height="12.052" transform="translate(1077.763 -318.701)" fill="#fff"/>
      <path id="Tracé_225" data-name="Tracé 225" d="M1336.3-306.531a2.637,2.637,0,0,1-1.948-.576,2.631,2.631,0,0,1-.967-1.781l-1.339.142a3.965,3.965,0,0,0,1.458,2.688c.051.041.108.07.16.108a3.96,3.96,0,0,0,2.352.783,3.94,3.94,0,0,0,.424-.022,3.976,3.976,0,0,0,1.941-.762,4.019,4.019,0,0,0,.752-.693,3.965,3.965,0,0,0,.873-2.93c-.266-2.543-2.262-3.223-3.583-3.672a6.509,6.509,0,0,1-.828-.317c-1.434-.734-1.339-1.585-1.144-2.162a1.768,1.768,0,0,1,2.184-1.034,1.865,1.865,0,0,1,1.284,1.667l1.345-.029a3.166,3.166,0,0,0-2.138-2.887c-.055-.019-.113-.043-.165-.056a3.38,3.38,0,0,0-1.865.056,2.944,2.944,0,0,0-1.92,1.851c-.528,1.552.13,2.936,1.805,3.792a7.724,7.724,0,0,0,1.007.393c1.465.5,2.515.972,2.678,2.537a2.624,2.624,0,0,1-.578,1.941A2.639,2.639,0,0,1,1336.3-306.531Z" transform="translate(-250.025 -0.695)" fill="#fff"/>
      <path id="Tracé_226" data-name="Tracé 226" d="M1394.676-305.077a5.948,5.948,0,0,0,5.941-5.941,5.948,5.948,0,0,0-5.941-5.941,5.948,5.948,0,0,0-5.941,5.941A5.947,5.947,0,0,0,1394.676-305.077Zm0-10.536a4.6,4.6,0,0,1,4.595,4.595,4.6,4.6,0,0,1-4.595,4.595,4.6,4.6,0,0,1-4.595-4.595A4.6,4.6,0,0,1,1394.676-315.613Z" transform="translate(-295.291 -1.661)" fill="#fff"/>
      <path id="Tracé_227" data-name="Tracé 227" d="M1473.145-306.32v-12.4H1471.8v8.535l-6.756-8.516-.268-.338v12.39h1.346v-8.526l6.766,8.531Z" transform="translate(-356.011)" fill="#fff"/>
      <path id="Tracé_228" data-name="Tracé 228" d="M1567.308-310.345h2.546a3.311,3.311,0,0,0,3.307-3.307,3.312,3.312,0,0,0-3.307-3.307h-3.892v11.972h1.346Zm0-5.268h2.546a1.963,1.963,0,0,1,1.961,1.961,1.963,1.963,0,0,1-1.961,1.961h-2.546Z" transform="translate(-436.81 -1.661)" fill="#fff"/>
      <path id="Tracé_229" data-name="Tracé 229" d="M1612.874-308.128h4.924l1.171,2.8h1.459l-5.038-12.056,0-.006,0,.006-5.178,12.056h1.465Zm2.5-5.811,1.865,4.464h-3.782Z" transform="translate(-472.14 -1.318)" fill="#fff"/>
      <path id="Tracé_230" data-name="Tracé 230" d="M1682.353-313.247a6.507,6.507,0,0,1-.828-.317c-1.434-.734-1.339-1.585-1.144-2.162a1.768,1.768,0,0,1,2.183-1.034,1.865,1.865,0,0,1,1.284,1.667l1.345-.029a3.167,3.167,0,0,0-2.138-2.887c-.055-.019-.114-.043-.165-.056a3.38,3.38,0,0,0-1.865.056,2.944,2.944,0,0,0-1.92,1.851c-.528,1.552.13,2.936,1.805,3.792a7.728,7.728,0,0,0,1.007.393c1.464.5,2.514.972,2.678,2.537a2.622,2.622,0,0,1-.578,1.941,2.638,2.638,0,0,1-1.788.965,2.637,2.637,0,0,1-1.948-.576,2.629,2.629,0,0,1-.967-1.781l-1.339.142a3.964,3.964,0,0,0,1.458,2.688c.05.041.108.07.159.108a3.961,3.961,0,0,0,2.352.783,3.937,3.937,0,0,0,.424-.022,3.975,3.975,0,0,0,1.941-.762,4,4,0,0,0,.752-.693,3.962,3.962,0,0,0,.873-2.93C1685.671-312.117,1683.675-312.8,1682.353-313.247Z" transform="translate(-526.257 -0.695)" fill="#fff"/>
      <path id="Tracé_231" data-name="Tracé 231" d="M1738.919-306.531a2.637,2.637,0,0,1-1.948-.576,2.63,2.63,0,0,1-.967-1.781l-1.339.142a3.965,3.965,0,0,0,1.459,2.688c.05.041.107.07.159.108a3.96,3.96,0,0,0,2.352.783,3.936,3.936,0,0,0,.424-.022,3.974,3.974,0,0,0,1.941-.762,4,4,0,0,0,.752-.693,3.963,3.963,0,0,0,.873-2.93c-.266-2.543-2.261-3.223-3.583-3.672a6.521,6.521,0,0,1-.828-.317c-1.434-.734-1.339-1.585-1.144-2.162a1.768,1.768,0,0,1,2.183-1.034,1.865,1.865,0,0,1,1.284,1.667l1.345-.029a3.167,3.167,0,0,0-2.138-2.887c-.055-.019-.114-.043-.165-.056a3.38,3.38,0,0,0-1.865.056,2.944,2.944,0,0,0-1.92,1.851c-.528,1.552.13,2.936,1.805,3.792a7.71,7.71,0,0,0,1.007.393c1.464.5,2.514.972,2.678,2.537a2.622,2.622,0,0,1-.578,1.941A2.638,2.638,0,0,1,1738.919-306.531Z" transform="translate(-571.523 -0.695)" fill="#fff"/>
      <rect id="Rectangle_5" data-name="Rectangle 5" width="1.346" height="12.052" transform="translate(1174.563 -318.701)" fill="#fff"/>
      <path id="Tracé_232" data-name="Tracé 232" d="M1820.178-305.113l.078-.191,4.974-12.057h-1.456l-3.606,8.74-3.658-8.74h-1.458L1820.1-305.3Z" transform="translate(-635.714 -1.341)" fill="#fff"/>
      <path id="Tracé_233" data-name="Tracé 233" d="M1889.179-315.618v-1.347h-6.526v11.883h6.526v-1.347H1884v-3.128h3.177V-310.9H1884v-4.713Z" transform="translate(-689.694 -1.656)" fill="#fff"/>
      <path id="Tracé_234" data-name="Tracé 234" d="M1045.964-219.779a.5.5,0,0,0-.037.712,19.588,19.588,0,0,0,14.489,6.517,19.588,19.588,0,0,0,14.489-6.517.5.5,0,0,0-.037-.712.5.5,0,0,0-.711.037,18.578,18.578,0,0,1-13.741,6.185,18.578,18.578,0,0,1-13.741-6.185A.5.5,0,0,0,1045.964-219.779Z" transform="translate(-21.449 -79.158)" fill="#fff"/>
      <path id="Tracé_235" data-name="Tracé 235" d="M1083.814-219.85a.5.5,0,0,0-.682.206.5.5,0,0,0,.206.682,14.334,14.334,0,0,0,6.745,1.693,14.336,14.336,0,0,0,6.745-1.693.5.5,0,0,0,.206-.682.5.5,0,0,0-.682-.206,13.143,13.143,0,0,1-6.27,1.574A13.143,13.143,0,0,1,1083.814-219.85Z" transform="translate(-51.213 -79.157)" fill="#fff"/>
      <path id="Tracé_236" data-name="Tracé 236" d="M1059.312-216.08a.5.5,0,0,0-.7.122c-.045.064-.091.129-.143.2a23.287,23.287,0,0,1-13.534,9.227,22.813,22.813,0,0,1-10.518,0,23.34,23.34,0,0,1-13.346-8.972c-.071-.1-.142-.193-.211-.291a.5.5,0,0,0-.7-.121.5.5,0,0,0-.121.7c.074.1.149.208.223.308a24.344,24.344,0,0,0,13.923,9.354,23.661,23.661,0,0,0,5.5.645,23.607,23.607,0,0,0,5.49-.645,24.287,24.287,0,0,0,14.117-9.616c.051-.07.1-.14.151-.21A.5.5,0,0,0,1059.312-216.08Z" transform="translate(-0.803 -82.142)" fill="#fff"/>
      <path id="Tracé_237" data-name="Tracé 237" d="M1199.231-180.332a27.786,27.786,0,0,1-2.877,2.393.5.5,0,0,0-.113.7.5.5,0,0,0,.409.209.5.5,0,0,0,.295-.1,28.79,28.79,0,0,0,2.975-2.474c.052-.048.1-.1.151-.143l-.7-.727C1199.329-180.424,1199.284-180.381,1199.231-180.332Z" transform="translate(-141.505 -110.653)" fill="#fff"/>
      <path id="Tracé_238" data-name="Tracé 238" d="M1023.831-178.551a27.733,27.733,0,0,1-2.826-2.344c-.07-.064-.14-.13-.207-.2a.5.5,0,0,0-.712.01.5.5,0,0,0,.01.712c.075.073.151.145.222.21a28.768,28.768,0,0,0,2.923,2.424.5.5,0,0,0,.295.1.5.5,0,0,0,.409-.209A.5.5,0,0,0,1023.831-178.551Z" transform="translate(-0.804 -110.041)" fill="#fff"/>
    </g>
  </g>
</svg>
