<svg xmlns="http://www.w3.org/2000/svg" width="179.871" height="32.128" viewBox="0 0 179.871 32.128">
  <g id="Navigation_Bar" data-name="Navigation Bar" transform="translate(0 -2)">
    <g id="Groupe_3" data-name="Groupe 3" transform="translate(0 2)">
      <g id="Groupe_5" data-name="Groupe 5" transform="translate(0 0)">
        <path id="Tracé_198" data-name="Tracé 198" d="M1260.621-189.73a.5.5,0,0,0-.71,0,.5.5,0,0,0,0,.71l4.88,4.854a.5.5,0,0,0,.354.146.5.5,0,0,0,.356-.148.5.5,0,0,0,0-.71Z" transform="translate(-1211.426 215.802)"/>
        <path id="Tracé_199" data-name="Tracé 199" d="M1423.851-189.73l-4.88,4.854a.5.5,0,0,0,0,.71.5.5,0,0,0,.356.148.5.5,0,0,0,.354-.146l4.88-4.854a.5.5,0,0,0,0-.71A.5.5,0,0,0,1423.851-189.73Z" transform="translate(-1338.556 215.802)"/>
        <path id="Tracé_200" data-name="Tracé 200" d="M1260.8-218.775a.5.5,0,0,0-.71,0,.5.5,0,0,0,0,.71l10.741,10.684a.5.5,0,0,0,.354.146.5.5,0,0,0,.356-.148.5.5,0,0,0,0-.71Z" transform="translate(-1211.568 239.017)"/>
        <path id="Tracé_201" data-name="Tracé 201" d="M1400.7-218.775l-10.74,10.684a.5.5,0,0,0,0,.71.5.5,0,0,0,.356.148.5.5,0,0,0,.354-.146l10.74-10.684a.5.5,0,0,0,0-.71A.5.5,0,0,0,1400.7-218.775Z" transform="translate(-1315.369 239.017)"/>
        <path id="Tracé_202" data-name="Tracé 202" d="M1286.89-218.919a.5.5,0,0,0-.709,0,.5.5,0,0,0,0,.71l10.769,10.713a.5.5,0,0,0,.354.146.5.5,0,0,0,.355-.148.5.5,0,0,0,0-.71Z" transform="translate(-1232.421 239.132)"/>
        <path id="Tracé_203" data-name="Tracé 203" d="M1374.856-218.917a.5.5,0,0,0-.709,0l-10.769,10.713a.5.5,0,0,0,0,.71.5.5,0,0,0,.355.148.5.5,0,0,0,.354-.146l10.769-10.713A.5.5,0,0,0,1374.856-218.917Z" transform="translate(-1294.121 239.132)"/>
        <path id="Tracé_204" data-name="Tracé 204" d="M1329.406-218.919a.5.5,0,0,0-.709,0l-7.329,7.29-7.329-7.29a.5.5,0,0,0-.71,0,.5.5,0,0,0,0,.71l8.037,7.994,8.037-7.994A.5.5,0,0,0,1329.406-218.919Z" transform="translate(-1254.12 239.134)"/>
        <path id="Tracé_205" data-name="Tracé 205" d="M1344.32-218.921l-2.089,2.079-2.09-2.079a.5.5,0,0,0-.71,0,.5.5,0,0,0,0,.71l2.8,2.783,2.8-2.783a.5.5,0,0,0,0-.71A.5.5,0,0,0,1344.32-218.921Z" transform="translate(-1274.983 239.134)"/>
        <path id="Tracé_206" data-name="Tracé 206" d="M1754.6-190.065a.542.542,0,0,0,.145-.047l-.073-.186-.119.039Z" transform="translate(-1606.896 216.14)"/>
        <path id="Tracé_207" data-name="Tracé 207" d="M1577.063-217.4,1566.9-207.24a.5.5,0,0,0,0,.71.5.5,0,0,0,.355.147.5.5,0,0,0,.355-.147l10.162-10.162a.5.5,0,0,0,0-.71A.5.5,0,0,0,1577.063-217.4Z" transform="translate(-1456.794 237.92)"/>
        <path id="Tracé_208" data-name="Tracé 208" d="M1634.125-217.4a.5.5,0,0,0-.71,0l-10.162,10.162a.5.5,0,0,0,0,.71.5.5,0,0,0,.355.147.5.5,0,0,0,.355-.147l10.162-10.162A.5.5,0,0,0,1634.125-217.4Z" transform="translate(-1501.835 237.92)"/>
        <path id="Tracé_209" data-name="Tracé 209" d="M1662.608-200.85a.5.5,0,0,0-.71,0l-5.9,5.9a.5.5,0,0,0,0,.71.5.5,0,0,0,.355.147.5.5,0,0,0,.355-.147l5.9-5.9A.5.5,0,0,0,1662.608-200.85Z" transform="translate(-1528.01 224.691)"/>
        <path id="Tracé_210" data-name="Tracé 210" d="M1680.556-172.8l-1.209,1.21a.5.5,0,0,0,0,.71.5.5,0,0,0,.354.147.5.5,0,0,0,.355-.147l1.21-1.21a.5.5,0,0,0,0-.71A.5.5,0,0,0,1680.556-172.8Z" transform="translate(-1546.669 202.273)"/>
        <path id="Tracé_211" data-name="Tracé 211" d="M1599.719-189.068l-4.473,4.475a.5.5,0,0,0,0,.71.5.5,0,0,0,.354.147.5.5,0,0,0,.355-.147l4.472-4.475a.5.5,0,0,0,0-.71A.5.5,0,0,0,1599.719-189.068Z" transform="translate(-1479.45 215.274)"/>
        <path id="Tracé_212" data-name="Tracé 212" d="M1635.97-217.4l-2.5,2.5a.5.5,0,0,0,0,.71.5.5,0,0,0,.355.147.5.5,0,0,0,.355-.147l2.5-2.5a.5.5,0,0,0,0-.71A.5.5,0,0,0,1635.97-217.4Z" transform="translate(-1509.999 237.92)"/>
        <path id="Tracé_213" data-name="Tracé 213" d="M1539.427-214.093a5.136,5.136,0,0,1,1.228-2.532l.011-.014a.007.007,0,0,0,0-.005l.011-.012a.46.46,0,0,0,.04-.056l0-.008a.3.3,0,0,0,.025-.054.1.1,0,0,1,0-.01.023.023,0,0,0,0-.01.277.277,0,0,0,.011-.033.2.2,0,0,0,.007-.041.017.017,0,0,0,0-.008h0a0,0,0,0,0,0,0v0a.524.524,0,0,0,.006-.069.48.48,0,0,0-.235-.413.474.474,0,0,0-.251-.07.384.384,0,0,0-.088.01.424.424,0,0,0-.118.038h0l-.028.015-.011.007-.015.01-.006,0-.019.014h0l-.008.005a0,0,0,0,1,0,0l-.014.011s0,0,0,0-.024.022-.035.034l-.014.015a.278.278,0,0,1-.021.023s0,.005-.006.008-.015.022-.023.034a6,6,0,0,0-1.391,2.883,5.145,5.145,0,0,1-1.461,2.785,5.151,5.151,0,0,1-2.745,1.538,6.017,6.017,0,0,0-3.18,1.793,6.835,6.835,0,0,0-.92,1.159.12.12,0,0,1-.012.019c0,.005-.006.011-.008.018a.208.208,0,0,1-.011.023,0,0,0,0,1,0,0l0,.011v0s0,0,0,.006c-.008.027-.015.056-.022.084a.037.037,0,0,0,0,.012s0,.01,0,.014a.378.378,0,0,0,0,.056.482.482,0,0,0,.232.413.467.467,0,0,0,.249.07.516.516,0,0,0,.124-.015.408.408,0,0,0,.056-.018l.011,0,0,0a.2.2,0,0,0,.038-.018l.019-.012a.123.123,0,0,0,.025-.018l.01-.005h.007c.014-.012.03-.025.043-.037l.007-.007.015-.014a.127.127,0,0,0,.011-.014.007.007,0,0,0,0-.006l.011-.012,0,0a.414.414,0,0,0,.037-.054l0-.008a.271.271,0,0,0,.014-.026,5.788,5.788,0,0,1,.756-.943,5.135,5.135,0,0,1,2.743-1.538,6.026,6.026,0,0,0,3.18-1.794A6.014,6.014,0,0,0,1539.427-214.093Z" transform="translate(-1427.512 237.83)"/>
        <path id="Tracé_214" data-name="Tracé 214" d="M1522.134-213.969a5.836,5.836,0,0,0,1.612-2.805l0-.01a.024.024,0,0,0,0-.01.257.257,0,0,0,.011-.033.2.2,0,0,0,.007-.041.022.022,0,0,0,0-.01,0,0,0,0,0,0,0v0a.524.524,0,0,0,.005-.069.48.48,0,0,0-.235-.413.474.474,0,0,0-.251-.07.386.386,0,0,0-.088.01.426.426,0,0,0-.118.038h0l-.028.015-.011.007-.015.01-.005,0-.019.014,0,0-.008.006-.014.011s0,0,0,0-.023.022-.034.034l-.014.015a.3.3,0,0,1-.021.023s0,.005-.005.008a.5.5,0,0,0-.044.071c0,.007-.007.015-.011.023a0,0,0,0,1,0,0l0,.011v0s0,0,0,.005c-.008.027-.015.056-.022.084a.045.045,0,0,0,0,.012,4.97,4.97,0,0,1-1.373,2.384,5.207,5.207,0,0,1-2.761,1.55,6.088,6.088,0,0,0-3.2,1.808,6.09,6.09,0,0,0-1.723,3.24,8.612,8.612,0,0,1-.294,1.006h0v0l-.034.089-.017.062s0,.008,0,.012a.026.026,0,0,1,0,.007.028.028,0,0,0,0,.007c0,.009,0,.019,0,.028s0,.019,0,.028a.479.479,0,0,0,.232.413h0a.469.469,0,0,0,.246.069.515.515,0,0,0,.124-.015.354.354,0,0,0,.055-.018l.011,0,.006,0a.16.16,0,0,0,.037-.018.082.082,0,0,0,.018-.011h0l.01-.007.015-.011.005,0,0,0s0,0,0,0h0c.014-.012.032-.025.043-.037l.008-.007.015-.014a.079.079,0,0,1,.011-.014s0,0,0-.005a.049.049,0,0,1,.011-.012s0,0,0,0a.642.642,0,0,0,.039-.053l0,0a0,0,0,0,1,0,0c.005-.008.008-.018.014-.026a.209.209,0,0,1,.01-.025s0,0,0,0,0-.007,0-.01a.023.023,0,0,0,0-.01,9.58,9.58,0,0,0,.347-1.173,5.2,5.2,0,0,1,1.479-2.8,5.2,5.2,0,0,1,2.761-1.551A6.084,6.084,0,0,0,1522.134-213.969Z" transform="translate(-1414.16 237.83)"/>
        <path id="Tracé_215" data-name="Tracé 215" d="M1500.243-214.9a6.054,6.054,0,0,0,3.044-1.659h0a.583.583,0,0,0,.045-.039l.007-.007a.164.164,0,0,0,.026-.027.007.007,0,0,0,0-.005l.011-.012a.435.435,0,0,0,.04-.056l0,0,0,0a.412.412,0,0,0,.029-.063.031.031,0,0,0,0-.01.259.259,0,0,0,.011-.033.211.211,0,0,0,.008-.049s0,0,0,0a.636.636,0,0,0,.005-.073.475.475,0,0,0-.064-.241.484.484,0,0,0-.074-.1.5.5,0,0,0-.1-.076.474.474,0,0,0-.252-.07.385.385,0,0,0-.088.01.421.421,0,0,0-.118.038h0l-.027.015-.011.007h0l-.015.009-.005,0-.022.016-.008.006-.014.011s0,0,0,0-.023.022-.034.034a5.181,5.181,0,0,1-2.662,1.453,6.082,6.082,0,0,0-3.2,1.807,6.079,6.079,0,0,0-1.723,3.24,5.218,5.218,0,0,1-1.479,2.8c-.1.1-.2.2-.3.288,0,0,0,0,0,0s-.023.022-.034.034-.023.026-.034.039,0,.005-.006.008a.528.528,0,0,0-.055.095,0,0,0,0,1,0,0,.058.058,0,0,0,0,.015.458.458,0,0,0-.026.1s0,.01,0,.014a.36.36,0,0,0,0,.056.483.483,0,0,0,.385.473.475.475,0,0,0,.1.01.52.52,0,0,0,.124-.015.419.419,0,0,0,.056-.018l.011,0,0,0a.2.2,0,0,0,.039-.018.276.276,0,0,0,.044-.03.046.046,0,0,0,.009-.005h0c.015-.012.033-.026.047-.04l.007-.007a.142.142,0,0,0,.026-.027.007.007,0,0,0,0-.006h0c.1-.09.2-.189.3-.292a6.08,6.08,0,0,0,1.723-3.242,5.217,5.217,0,0,1,1.479-2.8A5.207,5.207,0,0,1,1500.243-214.9Z" transform="translate(-1397.944 237.83)"/>
        <path id="Tracé_216" data-name="Tracé 216" d="M1495.316-217.366a.474.474,0,0,0-.251-.07.385.385,0,0,0-.088.01.422.422,0,0,0-.118.038h0l-.027.015-.011.007h-.011l-.029.026,0,0-.008.006-.014.011s0,0,0,0-.023.022-.034.034l-.014.015c-.076.071-.15.146-.227.224a6.167,6.167,0,0,0-1.283,1.834c0,.007-.007.015-.011.024a0,0,0,0,1,0,0l0,.011v0a.42.42,0,0,0-.026.1s0,.01,0,.014a.4.4,0,0,0,0,.056.483.483,0,0,0,.385.474.476.476,0,0,0,.1.01.514.514,0,0,0,.124-.015.4.4,0,0,0,.056-.018l.011,0,0,0a.21.21,0,0,0,.039-.018.268.268,0,0,0,.044-.03l.01-.005h0c.015-.012.033-.026.047-.04l.007-.007a.167.167,0,0,0,.026-.027.007.007,0,0,0,0-.006.412.412,0,0,0,.051-.069l0-.008a.352.352,0,0,0,.029-.063.027.027,0,0,0,0-.009v0a5.2,5.2,0,0,1,1.078-1.534c.064-.066.127-.129.191-.189h0c.014-.012.03-.025.043-.037l.007-.007a.181.181,0,0,0,.026-.027.007.007,0,0,0,0-.005l.011-.012a.412.412,0,0,0,.04-.056l0-.008a.352.352,0,0,0,.029-.063.028.028,0,0,0,0-.01.241.241,0,0,0,.011-.033.205.205,0,0,0,.008-.049,0,0,0,0,0,0,0,.636.636,0,0,0,.006-.073A.48.48,0,0,0,1495.316-217.366Z" transform="translate(-1397.96 237.83)"/>
        <path id="Tracé_217" data-name="Tracé 217" d="M1875.913-220.458a.5.5,0,0,0-.607.368,17.759,17.759,0,0,1-8.219,11.027.5.5,0,0,0-.178.687.5.5,0,0,0,.433.248.5.5,0,0,0,.254-.069,18.771,18.771,0,0,0,8.686-11.654A.5.5,0,0,0,1875.913-220.458Z" transform="translate(-1696.644 240.257)"/>
        <path id="Tracé_218" data-name="Tracé 218" d="M1728.033-214.722h15.557a12.839,12.839,0,0,0,10.153-4.938.5.5,0,0,0-.084-.7.5.5,0,0,0-.7.084,11.84,11.84,0,0,1-9.364,4.555h-15.557a.5.5,0,0,0-.5.5A.5.5,0,0,0,1728.033-214.722Z" transform="translate(-1585.299 240.257)"/>
        <path id="Tracé_219" data-name="Tracé 219" d="M1728.033-219.313h14.52a9.46,9.46,0,0,0,1.763-.165.5.5,0,0,0,.4-.587.5.5,0,0,0-.587-.4,8.438,8.438,0,0,1-1.576.148h-14.52a.5.5,0,0,0-.5.5A.5.5,0,0,0,1728.033-219.313Z" transform="translate(-1585.299 240.258)"/>
        <path id="Tracé_220" data-name="Tracé 220" d="M1759.513-219.766a.5.5,0,0,0-.251-.664.5.5,0,0,0-.664.251,15.276,15.276,0,0,1-13.9,8.978h-16.667a.5.5,0,0,0-.5.5.5.5,0,0,0,.5.5H1744.7A16.279,16.279,0,0,0,1759.513-219.766Z" transform="translate(-1585.299 240.259)"/>
        <path id="Tracé_221" data-name="Tracé 221" d="M1025.439-306.694h-5.161V-317.36h-1.341v12.009h6.5Z" transform="translate(-1018.937 317.697)"/>
        <path id="Tracé_222" data-name="Tracé 222" d="M1071.038-308.163h4.905l1.166,2.791h1.454l-5.019-12.011,0-.006,0,.006-5.158,12.011h1.459Zm2.486-5.789,1.858,4.447h-3.768Z" transform="translate(-1058.456 317.72)"/>
        <path id="Tracé_223" data-name="Tracé 223" d="M1183.526-313.024l-4.6-5-.154-.167v12.173h1.341v-8.734l3.411,3.71,3.411-3.71v8.734h1.341v-12.173l-.154.167Z" transform="translate(-1146.69 318.361)"/>
        <path id="Tracé_224" data-name="Tracé 224" d="M1251.865-305.372h1.454l-5.02-12.011,0-.006,0,.006-5.158,12.011h1.459l1.2-2.791h4.905Zm-5.5-4.133,1.91-4.447,1.858,4.447Z" transform="translate(-1198.133 317.72)"/>
        <rect id="Rectangle_4" data-name="Rectangle 4" width="1.341" height="12.007" transform="translate(58.605 0.337)"/>
        <path id="Tracé_225" data-name="Tracé 225" d="M1336.285-306.574a2.627,2.627,0,0,1-1.941-.574,2.62,2.62,0,0,1-.963-1.774l-1.334.141a3.95,3.95,0,0,0,1.453,2.678c.05.041.108.07.159.107a3.945,3.945,0,0,0,2.343.78,3.918,3.918,0,0,0,.422-.022,3.96,3.96,0,0,0,1.934-.759,4,4,0,0,0,.749-.691,3.949,3.949,0,0,0,.87-2.919c-.265-2.533-2.253-3.211-3.57-3.659a6.48,6.48,0,0,1-.825-.316c-1.429-.731-1.334-1.579-1.139-2.154a1.762,1.762,0,0,1,2.175-1.03,1.858,1.858,0,0,1,1.279,1.661l1.34-.029a3.155,3.155,0,0,0-2.13-2.876c-.054-.019-.113-.043-.164-.056a3.368,3.368,0,0,0-1.858.056,2.933,2.933,0,0,0-1.913,1.844c-.526,1.546.129,2.925,1.8,3.777a7.713,7.713,0,0,0,1,.392c1.459.5,2.505.968,2.668,2.527a2.614,2.614,0,0,1-.576,1.934A2.629,2.629,0,0,1,1336.285-306.574Z" transform="translate(-1269.198 318.344)"/>
        <path id="Tracé_226" data-name="Tracé 226" d="M1394.654-305.122a5.925,5.925,0,0,0,5.919-5.919,5.925,5.925,0,0,0-5.919-5.919,5.925,5.925,0,0,0-5.919,5.919A5.925,5.925,0,0,0,1394.654-305.122Zm0-10.5a4.583,4.583,0,0,1,4.577,4.578,4.583,4.583,0,0,1-4.577,4.578,4.583,4.583,0,0,1-4.577-4.578A4.583,4.583,0,0,1,1394.654-315.618Z" transform="translate(-1314.508 317.377)"/>
        <path id="Tracé_227" data-name="Tracé 227" d="M1473.114-306.368v-12.353h-1.341v8.5l-6.73-8.484-.267-.337V-306.7h1.341v-8.494l6.741,8.5Z" transform="translate(-1375.285 319.039)"/>
        <path id="Tracé_228" data-name="Tracé 228" d="M1567.3-310.37h2.536a3.3,3.3,0,0,0,3.295-3.295,3.3,3.3,0,0,0-3.295-3.294h-3.878v11.927h1.341Zm0-5.248h2.536a1.955,1.955,0,0,1,1.954,1.953,1.955,1.955,0,0,1-1.954,1.954H1567.3Z" transform="translate(-1456.161 317.377)"/>
        <path id="Tracé_229" data-name="Tracé 229" d="M1612.864-308.163h4.905l1.167,2.791h1.454l-5.02-12.011,0-.006,0,.006-5.158,12.011h1.459Zm2.486-5.789,1.858,4.447h-3.768Z" transform="translate(-1491.524 317.72)"/>
        <path id="Tracé_230" data-name="Tracé 230" d="M1682.337-313.265a6.475,6.475,0,0,1-.825-.316c-1.428-.731-1.334-1.579-1.139-2.154a1.761,1.761,0,0,1,2.175-1.03,1.858,1.858,0,0,1,1.28,1.661l1.34-.029a3.155,3.155,0,0,0-2.13-2.876c-.055-.019-.113-.043-.164-.056a3.368,3.368,0,0,0-1.858.056,2.933,2.933,0,0,0-1.913,1.844c-.526,1.546.13,2.925,1.8,3.777a7.71,7.71,0,0,0,1,.392c1.459.5,2.5.968,2.668,2.527a2.612,2.612,0,0,1-.576,1.934,2.628,2.628,0,0,1-1.781.961,2.627,2.627,0,0,1-1.941-.574,2.619,2.619,0,0,1-.963-1.774l-1.334.141a3.949,3.949,0,0,0,1.453,2.678c.05.041.107.07.158.107a3.946,3.946,0,0,0,2.343.78,3.914,3.914,0,0,0,.422-.022,3.959,3.959,0,0,0,1.934-.759,3.982,3.982,0,0,0,.749-.691,3.946,3.946,0,0,0,.87-2.919C1685.642-312.14,1683.653-312.817,1682.337-313.265Z" transform="translate(-1545.692 318.344)"/>
        <path id="Tracé_231" data-name="Tracé 231" d="M1738.9-306.574a2.627,2.627,0,0,1-1.941-.574,2.621,2.621,0,0,1-.963-1.774l-1.334.141a3.951,3.951,0,0,0,1.453,2.678c.05.041.107.07.159.107a3.945,3.945,0,0,0,2.343.78,3.91,3.91,0,0,0,.422-.022,3.959,3.959,0,0,0,1.934-.759,3.99,3.99,0,0,0,.749-.691,3.949,3.949,0,0,0,.87-2.919c-.265-2.533-2.253-3.211-3.57-3.659a6.5,6.5,0,0,1-.825-.316c-1.428-.731-1.334-1.579-1.139-2.154a1.762,1.762,0,0,1,2.175-1.03,1.858,1.858,0,0,1,1.279,1.661l1.34-.029a3.155,3.155,0,0,0-2.13-2.876c-.055-.019-.113-.043-.165-.056a3.367,3.367,0,0,0-1.858.056,2.933,2.933,0,0,0-1.913,1.844c-.526,1.546.13,2.925,1.8,3.777a7.7,7.7,0,0,0,1,.392c1.459.5,2.505.968,2.668,2.527a2.613,2.613,0,0,1-.576,1.934A2.628,2.628,0,0,1,1738.9-306.574Z" transform="translate(-1591.001 318.344)"/>
        <rect id="Rectangle_5" data-name="Rectangle 5" width="1.341" height="12.007" transform="translate(155.043 0.337)"/>
        <path id="Tracé_232" data-name="Tracé 232" d="M1820.159-305.159l.078-.19,4.956-12.011h-1.451l-3.592,8.707-3.645-8.707h-1.453l5.028,12.011Z" transform="translate(-1655.252 317.697)"/>
        <path id="Tracé_233" data-name="Tracé 233" d="M1889.154-315.623v-1.342h-6.5v11.839h6.5v-1.342h-5.161v-3.116h3.165v-1.342h-3.165v-4.7Z" transform="translate(-1709.284 317.382)"/>
        <path id="Tracé_234" data-name="Tracé 234" d="M1045.964-219.78a.5.5,0,0,0-.037.709,19.515,19.515,0,0,0,14.435,6.493,19.515,19.515,0,0,0,14.435-6.493.5.5,0,0,0-.036-.709.5.5,0,0,0-.709.036,18.508,18.508,0,0,1-13.689,6.162,18.507,18.507,0,0,1-13.689-6.162A.5.5,0,0,0,1045.964-219.78Z" transform="translate(-1040.406 239.806)"/>
        <path id="Tracé_235" data-name="Tracé 235" d="M1083.811-219.851a.5.5,0,0,0-.679.205.5.5,0,0,0,.205.679,14.281,14.281,0,0,0,6.72,1.687,14.282,14.282,0,0,0,6.72-1.687.5.5,0,0,0,.205-.679.5.5,0,0,0-.679-.205,13.094,13.094,0,0,1-6.246,1.568A13.092,13.092,0,0,1,1083.811-219.851Z" transform="translate(-1070.198 239.808)"/>
        <path id="Tracé_236" data-name="Tracé 236" d="M1059.164-216.08a.5.5,0,0,0-.7.121c-.045.064-.091.128-.142.2a23.2,23.2,0,0,1-13.483,9.192,22.727,22.727,0,0,1-10.478,0,23.252,23.252,0,0,1-13.3-8.938c-.07-.1-.141-.193-.21-.29a.5.5,0,0,0-.7-.121.5.5,0,0,0-.121.7c.073.1.148.207.222.306a24.253,24.253,0,0,0,13.871,9.319,23.571,23.571,0,0,0,5.474.642,23.518,23.518,0,0,0,5.47-.642,24.2,24.2,0,0,0,14.064-9.58c.051-.07.1-.14.15-.209A.5.5,0,0,0,1059.164-216.08Z" transform="translate(-1019.741 236.82)"/>
        <path id="Tracé_237" data-name="Tracé 237" d="M1199.219-180.333a27.683,27.683,0,0,1-2.866,2.384.5.5,0,0,0-.113.7.5.5,0,0,0,.407.208.5.5,0,0,0,.294-.095,28.661,28.661,0,0,0,2.964-2.465c.051-.048.1-.1.151-.143l-.695-.725C1199.317-180.424,1199.272-180.381,1199.219-180.333Z" transform="translate(-1160.575 208.282)"/>
        <path id="Tracé_238" data-name="Tracé 238" d="M1023.817-178.561A27.627,27.627,0,0,1,1021-180.9c-.07-.064-.139-.129-.207-.195a.5.5,0,0,0-.71.01.5.5,0,0,0,.01.71c.074.072.151.144.222.209a28.658,28.658,0,0,0,2.912,2.415.5.5,0,0,0,.293.095.5.5,0,0,0,.407-.208A.5.5,0,0,0,1023.817-178.561Z" transform="translate(-1019.741 208.894)"/>
      </g>
    </g>
  </g>
</svg>
