<svg xmlns="http://www.w3.org/2000/svg" width="148.209" height="213.456" viewBox="0 0 148.209 213.456">
  <g id="Groupe_375" data-name="Groupe 375" transform="translate(-206.698 -79.024)">
    <path id="Tracé_307" data-name="Tracé 307" d="M224.3,612.227v-.011a.777.777,0,0,0,.145.056A.715.715,0,0,1,224.3,612.227Z" transform="translate(-13.07 -395.838)" fill="#1d1d1b"/>
    <g id="Groupe_365" data-name="Groupe 365" transform="translate(225.91 212.918)">
      <path id="Tracé_308" data-name="Tracé 308" d="M281.405,598.842a.038.038,0,0,1,.024-.011v.011Z" transform="translate(-281.372 -598.818)" fill="#1d1d1b"/>
      <path id="Tracé_309" data-name="Tracé 309" d="M281.346,598.818h-.07l.024-.022a.051.051,0,0,1,.033-.015h.013Z" transform="translate(-281.276 -598.781)" fill="#fff"/>
    </g>
    <g id="Groupe_366" data-name="Groupe 366" transform="translate(226.086 166.294)">
      <path id="Tracé_310" data-name="Tracé 310" d="M282.087,417.854a.039.039,0,0,1,.024-.011v.011Z" transform="translate(-282.054 -417.83)" fill="#1d1d1b"/>
      <path id="Tracé_311" data-name="Tracé 311" d="M282.03,417.83h-.07l.024-.022a.05.05,0,0,1,.033-.015h.013Z" transform="translate(-281.96 -417.793)" fill="#fff"/>
    </g>
    <path id="Tracé_312" data-name="Tracé 312" d="M209.367,443.795a.9.9,0,0,1-.641-1.535l66.85-67.7a.9.9,0,0,1,1.283,1.267l-66.85,67.7A.9.9,0,0,1,209.367,443.795Z" transform="translate(-1.312 -219.207)" fill="#cd6586"/>
    <path id="Tracé_313" data-name="Tracé 313" d="M313.77,639.432a.9.9,0,0,1-.637-1.54l.047-.046,1.2-1.216a.9.9,0,0,1,1.283,1.267l-1.257,1.273A.9.9,0,0,1,313.77,639.432Z" transform="translate(-78.82 -413.763)" fill="#cd6586"/>
    <path id="Tracé_314" data-name="Tracé 314" d="M338.24,599.381a.9.9,0,0,1-.641-1.535l6.487-6.572a.9.9,0,0,1,1.283,1.266l-6.488,6.573A.9.9,0,0,1,338.24,599.381Z" transform="translate(-96.987 -380.091)" fill="#cd6586"/>
    <path id="Tracé_315" data-name="Tracé 315" d="M378.189,542.971a.9.9,0,0,1-.647-1.527l11.959-12.11a.9.9,0,0,1,1.283,1.268l-11.951,12.1A.9.9,0,0,1,378.189,542.971Z" transform="translate(-126.644 -334.107)" fill="#cd6586"/>
    <path id="Tracé_316" data-name="Tracé 316" d="M439.36,489.3a.9.9,0,0,1-.643-1.534l.567-.577,8.554-8.662a.9.9,0,0,1,1.285,1.266L440,489.033A.9.9,0,0,1,439.36,489.3Z" transform="translate(-172.057 -296.39)" fill="#cd6586"/>
    <path id="Tracé_317" data-name="Tracé 317" d="M348.14,629.914a.9.9,0,0,1-.642-1.535l4.511-4.57a.9.9,0,0,1,1.283,1.267l-4.51,4.57A.9.9,0,0,1,348.14,629.914Z" transform="translate(-104.336 -404.245)" fill="#cd6586"/>
    <path id="Tracé_318" data-name="Tracé 318" d="M380.415,581.358a.9.9,0,0,1-.641-1.535l9.951-10.077a.9.9,0,1,1,1.283,1.267l-9.952,10.077A.9.9,0,0,1,380.415,581.358Z" transform="translate(-128.297 -364.109)" fill="#cd6586"/>
    <path id="Tracé_319" data-name="Tracé 319" d="M441.03,523.665a.9.9,0,0,1-.642-1.535l8.689-8.8a.9.9,0,1,1,1.284,1.267l-8.689,8.8A.9.9,0,0,1,441.03,523.665Z" transform="translate(-173.297 -322.226)" fill="#cd6586"/>
    <path id="Tracé_320" data-name="Tracé 320" d="M381.58,634.48a.9.9,0,0,1-.641-1.535l2.943-2.982a.9.9,0,0,1,1.29,1.26l-2.951,2.989A.9.9,0,0,1,381.58,634.48Z" transform="translate(-129.161 -408.811)" fill="#cd6586"/>
    <path id="Tracé_321" data-name="Tracé 321" d="M415.012,592.692a.9.9,0,0,1-.648-1.519l.02-.02,5.648-5.722a.9.9,0,0,1,1.283,1.267l-5.648,5.721A.918.918,0,0,1,415.012,592.692Z" transform="translate(-153.982 -375.754)" fill="#cd6586"/>
    <path id="Tracé_322" data-name="Tracé 322" d="M451.744,554.791a.9.9,0,0,1-.639-1.537l1.8-1.814,4.1-4.158a.9.9,0,0,1,1.287,1.263l-.3.3-5.61,5.676A.9.9,0,0,1,451.744,554.791Z" transform="translate(-181.251 -347.43)" fill="#cd6586"/>
    <path id="Tracé_323" data-name="Tracé 323" d="M414.96,623.693a.9.9,0,0,1-.641-1.536l6.648-6.728a.9.9,0,0,1,1.283,1.267l-6.65,6.729A.9.9,0,0,1,414.96,623.693Z" transform="translate(-153.942 -398.024)" fill="#cd6586"/>
    <path id="Tracé_324" data-name="Tracé 324" d="M461.732,587.473a.9.9,0,0,1-.641-1.535l2.834-2.867a.9.9,0,1,1,1.282,1.268l-2.834,2.867A.9.9,0,0,1,461.732,587.473Z" transform="translate(-188.666 -374.001)" fill="#cd6586"/>
    <path id="Tracé_325" data-name="Tracé 325" d="M448.37,641.288a.9.9,0,0,1-.641-1.535l.616-.623a.9.9,0,0,1,1.283,1.268l-.616.623A.9.9,0,0,1,448.37,641.288Z" transform="translate(-178.746 -415.619)" fill="#cd6586"/>
    <path id="Tracé_326" data-name="Tracé 326" d="M465.515,620.3a.9.9,0,0,1-.641-1.536l1.859-1.881a.9.9,0,0,1,1.282,1.268l-1.859,1.88A.9.9,0,0,1,465.515,620.3Z" transform="translate(-191.475 -399.101)" fill="#cd6586"/>
    <path id="Tracé_327" data-name="Tracé 327" d="M246.96,624.531a.9.9,0,0,1-.641-1.536l6.354-6.436a.9.9,0,0,1,1.284,1.266l-6.356,6.439A.9.9,0,0,1,246.96,624.531Z" transform="translate(-29.221 -398.862)" fill="#cd6586"/>
    <path id="Tracé_328" data-name="Tracé 328" d="M286.39,557.879a.9.9,0,0,1-.641-1.535l15.512-15.709a.9.9,0,1,1,1.284,1.266l-15.513,15.709A.9.9,0,0,1,286.39,557.879Z" transform="translate(-58.494 -342.497)" fill="#cd6586"/>
    <path id="Tracé_329" data-name="Tracé 329" d="M362.521,503.181a.9.9,0,0,1-.641-1.535l7.834-7.936A.9.9,0,0,1,371,494.977l-7.834,7.936A.9.9,0,0,1,362.521,503.181Z" transform="translate(-115.012 -307.661)" fill="#cd6586"/>
    <path id="Tracé_330" data-name="Tracé 330" d="M412.505,430.884a.9.9,0,0,1-.642-1.535l15.267-15.459a.9.9,0,1,1,1.282,1.268l-15.266,15.458A.9.9,0,0,1,412.505,430.884Z" transform="translate(-152.12 -248.402)" fill="#cd6586"/>
    <path id="Tracé_331" data-name="Tracé 331" d="M208.1,435.053a.721.721,0,0,1,0-.1c0-.007,0-.017,0-.025a.966.966,0,0,1,.047-.185.107.107,0,0,1,.007-.028.009.009,0,0,0,0-.005.98.98,0,0,1,.1-.173s.01-.01.01-.015a.72.72,0,0,1,.062-.07.178.178,0,0,1,.03-.033.063.063,0,0,1,.015-.013l.153-.115a0,0,0,0,1,0,0s0,0,.005,0a11.213,11.213,0,0,1,4.064-1.8,9.213,9.213,0,0,0,4.936-2.8,9.429,9.429,0,0,0,2.631-5.076,11.021,11.021,0,0,1,3.068-5.882,10.789,10.789,0,0,1,5.722-3.267,9.236,9.236,0,0,0,4.939-2.8,9.417,9.417,0,0,0,2.629-5.074,11.035,11.035,0,0,1,3.071-5.882,10.771,10.771,0,0,1,5.722-3.27,9.234,9.234,0,0,0,4.936-2.8,9.411,9.411,0,0,0,2.631-5.076,11.028,11.028,0,0,1,3.071-5.882,10.812,10.812,0,0,1,5.722-3.27,9.736,9.736,0,0,0,3.558-1.571,1,1,0,0,1,.082-.065s.007,0,.01-.005a.852.852,0,0,1,.477-.145.885.885,0,0,1,.617,1.506c-.066.053-.133.1-.2.153a11.231,11.231,0,0,1-4.086,1.816,9.235,9.235,0,0,0-4.939,2.8,9.432,9.432,0,0,0-2.631,5.076,11,11,0,0,1-3.071,5.882,10.805,10.805,0,0,1-5.722,3.27,9.22,9.22,0,0,0-4.936,2.8,9.415,9.415,0,0,0-2.631,5.074,11,11,0,0,1-3.071,5.882,10.8,10.8,0,0,1-5.722,3.27,9.2,9.2,0,0,0-4.936,2.8,9.406,9.406,0,0,0-2.629,5.074,11.037,11.037,0,0,1-3.071,5.882,10.78,10.78,0,0,1-5.722,3.267,9.719,9.719,0,0,0-3.533,1.556l-.015.013a.285.285,0,0,0-.035.025s0,0-.01.007l-.007,0a.487.487,0,0,1-.079.055.318.318,0,0,1-.066.032l-.008.005-.022.007a.769.769,0,0,1-.1.033.547.547,0,0,1-.089.015.583.583,0,0,1-.136.013A.874.874,0,0,1,208.1,435.053Z" transform="translate(-1.042 -223.155)" fill="#cd6586"/>
    <path id="Tracé_332" data-name="Tracé 332" d="M208.159,427.71a.718.718,0,0,1,0-.1c0-.008,0-.018,0-.025a.824.824,0,0,1,.047-.185.122.122,0,0,1,.007-.028.008.008,0,0,0,0,0,.962.962,0,0,1,.1-.173s.01-.01.01-.015c.02-.022.039-.047.062-.07s.042-.042.062-.063c0,0,0,0,0,0a.154.154,0,0,0,.025-.02.043.043,0,0,0,.015-.01l.039-.03c.005,0,.007,0,.01,0l.047-.03.049-.028h0a.7.7,0,0,1,.1-.04.045.045,0,0,1,.024-.007,9.1,9.1,0,0,0,4.675-2.745,9.538,9.538,0,0,0,2.661-5.1,11.147,11.147,0,0,1,3.1-5.9,10.919,10.919,0,0,1,5.749-3.3A9.334,9.334,0,0,0,229.929,407a9.537,9.537,0,0,0,2.661-5.1,11.121,11.121,0,0,1,3.1-5.9,10.91,10.91,0,0,1,5.749-3.295,9.352,9.352,0,0,0,4.968-2.824,9.531,9.531,0,0,0,2.658-5.1,11.248,11.248,0,0,1,2.135-4.791s.01-.01.01-.015a1.287,1.287,0,0,1,.126-.133,1,1,0,0,1,.082-.065s.007,0,.01-.005a.845.845,0,0,1,.475-.145.877.877,0,0,1,.872.881.987.987,0,0,1-.269.635,9.726,9.726,0,0,0-1.759,4.058,11.144,11.144,0,0,1-3.1,5.9,10.9,10.9,0,0,1-5.749,3.292,9.342,9.342,0,0,0-4.969,2.827,9.553,9.553,0,0,0-2.661,5.1,11.128,11.128,0,0,1-3.1,5.9,10.9,10.9,0,0,1-5.746,3.292,9.324,9.324,0,0,0-4.968,2.827,9.518,9.518,0,0,0-2.661,5.1,11.146,11.146,0,0,1-3.1,5.9,10.6,10.6,0,0,1-5.314,3.172l-.215.06a.609.609,0,0,1-.136.012A.874.874,0,0,1,208.159,427.71Z" transform="translate(-1.085 -223.155)" fill="#cd6586"/>
    <path id="Tracé_333" data-name="Tracé 333" d="M208.121,417.509a.723.723,0,0,1,0-.1c0-.008,0-.018,0-.025a.822.822,0,0,1,.047-.185.11.11,0,0,1,.007-.028.007.007,0,0,0,0,0,1,1,0,0,1,.1-.173c0-.005.01-.01.01-.015.02-.023.039-.048.062-.07s.042-.043.062-.063c0,0,0,0,0-.005.175-.16.353-.335.536-.525a9.552,9.552,0,0,0,2.661-5.1,11.128,11.128,0,0,1,3.1-5.9,10.9,10.9,0,0,1,5.749-3.293,9.341,9.341,0,0,0,4.968-2.827,9.555,9.555,0,0,0,2.661-5.1,11.124,11.124,0,0,1,3.1-5.9,10.9,10.9,0,0,1,5.746-3.292,9.341,9.341,0,0,0,4.968-2.827,9.065,9.065,0,0,0,2.488-4.416c.022-.078.042-.158.06-.238a.008.008,0,0,0,0,0,.971.971,0,0,1,.1-.173c0-.005.01-.01.01-.015a1.251,1.251,0,0,1,.126-.132c.025-.023.054-.045.081-.065,0,0,.007,0,.01,0a.843.843,0,0,1,.474-.145.884.884,0,0,1,.842,1.111,10.744,10.744,0,0,1-2.95,5.3,10.917,10.917,0,0,1-5.749,3.295,9.337,9.337,0,0,0-4.968,2.825,9.537,9.537,0,0,0-2.661,5.1,11.127,11.127,0,0,1-3.1,5.9,10.909,10.909,0,0,1-5.749,3.295,9.336,9.336,0,0,0-4.968,2.825,9.552,9.552,0,0,0-2.661,5.1,11.126,11.126,0,0,1-3.1,5.907c-.183.19-.366.37-.544.535q-.085.083-.171.158a.483.483,0,0,1-.079.055.361.361,0,0,1-.069.032s0,0-.007,0l-.02.008a.692.692,0,0,1-.1.032.919.919,0,0,1-.222.028A.874.874,0,0,1,208.121,417.509Z" transform="translate(-1.056 -221.115)" fill="#cd6586"/>
    <path id="Tracé_334" data-name="Tracé 334" d="M210.149,401.431a.683.683,0,0,1,.005-.1c0-.007,0-.017,0-.025a.82.82,0,0,1,.047-.185v-.007c.012-.022.02-.045.03-.068a11.247,11.247,0,0,1,2.307-3.342,10.9,10.9,0,0,1,5.749-3.293,9.34,9.34,0,0,0,4.968-2.827,9.552,9.552,0,0,0,2.661-5.1,11.128,11.128,0,0,1,3.1-5.9,10.906,10.906,0,0,1,5.746-3.292,9.321,9.321,0,0,0,4.405-2.274.735.735,0,0,1,.064-.062l0-.005c.022-.02.052-.04.077-.06,0,0,.007,0,.01,0a.842.842,0,0,1,.474-.145.886.886,0,0,1,.759,1.318.76.76,0,0,1-.089.125c-.057.055-.114.11-.17.158a10.847,10.847,0,0,1-5.075,2.639,9.333,9.333,0,0,0-4.968,2.824,9.537,9.537,0,0,0-2.661,5.1,11.129,11.129,0,0,1-3.1,5.9,10.91,10.91,0,0,1-5.749,3.295,9.334,9.334,0,0,0-4.968,2.824,9.49,9.49,0,0,0-1.942,2.8c-.02.045-.039.09-.057.132l-.007.015a.768.768,0,0,1-.091.125.013.013,0,0,1,0,.01.3.3,0,0,1-.047.05l-.012.013c-.025.025-.057.05-.084.072,0,0,0,0-.005,0a.1.1,0,0,1-.017.01.483.483,0,0,1-.079.055.349.349,0,0,1-.069.033l-.007,0-.02.008a.69.69,0,0,1-.1.032.917.917,0,0,1-.222.028A.874.874,0,0,1,210.149,401.431Z" transform="translate(-2.562 -219.529)" fill="#cd6586"/>
    <path id="Tracé_335" data-name="Tracé 335" d="M209.121,392.483a.721.721,0,0,1,0-.1c0-.008,0-.018,0-.025a.824.824,0,0,1,.047-.185.112.112,0,0,1,.007-.028.008.008,0,0,0,0,0,1,1,0,0,1,.1-.173s.01-.01.01-.015c.02-.022.039-.047.062-.07s.042-.043.062-.062c0,0,0,0,0-.005a.157.157,0,0,0,.025-.02.052.052,0,0,0,.015-.01l.039-.03s.007,0,.01,0l.047-.03a12.359,12.359,0,0,1,3.263-1.276,9.341,9.341,0,0,0,4.968-2.827,9.557,9.557,0,0,0,2.661-5.1,11.125,11.125,0,0,1,3.1-5.9c.188-.2.376-.381.558-.551l.091-.088a.049.049,0,0,0,.015-.01l.04-.03s.007,0,.01-.005a.845.845,0,0,1,.474-.145.884.884,0,0,1,.843,1.111.888.888,0,0,1-.084.208.76.76,0,0,1-.089.125.037.037,0,0,1-.007.01c-.049.043-.1.087-.148.138-.153.14-.306.3-.464.458a9.536,9.536,0,0,0-2.661,5.1,11.124,11.124,0,0,1-3.1,5.9,10.907,10.907,0,0,1-5.749,3.295,11.046,11.046,0,0,0-2.774,1.061s0,0,0,0a.118.118,0,0,1-.018.01c-.049.028-.1.057-.148.088l-.007,0-.02.007a.694.694,0,0,1-.1.033.916.916,0,0,1-.222.027A.874.874,0,0,1,209.121,392.483Z" transform="translate(-1.799 -220.308)" fill="#cd6586"/>
    <path id="Tracé_336" data-name="Tracé 336" d="M218.09,378.531a.276.276,0,0,1,0,.046.01.01,0,0,1,0,.008c-.015.054-.028.111-.044.167-.039.152-.075.3-.113.461a11.139,11.139,0,0,1-3.1,5.9,10.466,10.466,0,0,1-4.521,2.929.476.476,0,0,1-.1.031.88.88,0,0,1-.219.028.863.863,0,0,1-.729-.4.884.884,0,0,1-.139-.477.718.718,0,0,1,.008-.1c0-.005,0-.016,0-.023a.889.889,0,0,1,.046-.185c0-.01.008-.018.01-.028a.008.008,0,0,0,0-.005,1.06,1.06,0,0,1,.07-.131l.026-.041c.005-.005.01-.01.01-.016.021-.02.041-.046.062-.07l.064-.062.005-.005a.154.154,0,0,0,.023-.021.053.053,0,0,0,.015-.01c.01-.01.026-.018.039-.028s.008,0,.01-.005c.031-.021.064-.041.1-.059h0c.072-.021.144-.046.214-.07a8.859,8.859,0,0,0,3.764-2.465,9.549,9.549,0,0,0,2.661-5.1l.062-.263Z" transform="translate(-1.797 -222.352)" fill="#cd6586"/>
    <path id="Tracé_337" data-name="Tracé 337" d="M236.952,375.61a.681.681,0,0,1,.005-.1c0-.007.005-.017.005-.025a.933.933,0,0,1,.049-.185.11.11,0,0,1,.008-.028.008.008,0,0,0,0,0,.972.972,0,0,1,.1-.173c.005-.005.01-.01.01-.015a.814.814,0,0,1,.064-.07.2.2,0,0,1,.031-.033.064.064,0,0,1,.015-.012l.018-.018s0,0,0-.005a.183.183,0,0,0,.025-.02.044.044,0,0,0,.018-.01l.038-.03s.007,0,.01,0c.018-.01.031-.02.046-.028a0,0,0,0,1,0,0s0,0,.005,0l.046-.025h.005a.776.776,0,0,1,.1-.04.037.037,0,0,1,.023-.007.669.669,0,0,1,.095-.023.7.7,0,0,1,.162-.018.892.892,0,0,1,.906.881,1.1,1.1,0,0,1-.01.133s0,0-.005.007a.542.542,0,0,1-.013.09.5.5,0,0,1-.028.078.857.857,0,0,1-.062.13.636.636,0,0,1-.092.125s-.005.007-.005.01a.327.327,0,0,1-.051.05c-.005.005-.008.01-.013.013a.553.553,0,0,1-.041.037l-.015.013a.277.277,0,0,0-.028.022s0,0-.008,0,0,0-.01.007l-.008,0a.5.5,0,0,1-.082.055.356.356,0,0,1-.069.033l-.008,0-.023.008a.834.834,0,0,1-.1.033.6.6,0,0,1-.092.015.625.625,0,0,1-.141.012A.889.889,0,0,1,236.952,375.61Z" transform="translate(-22.46 -219.529)" fill="#cd6586"/>
    <path id="Tracé_338" data-name="Tracé 338" d="M528.662,442.152H504.532a.9.9,0,0,1,0-1.8h24.131a44.024,44.024,0,0,0,44.072-43.875V372.09a.9.9,0,0,1,1.8,0v24.385A45.829,45.829,0,0,1,528.662,442.152Z" transform="translate(-220.44 -216.9)" fill="#2d8592"/>
    <path id="Tracé_339" data-name="Tracé 339" d="M523.411,425.021H504.532a.9.9,0,0,1,0-1.8h18.879a32.427,32.427,0,0,0,32.527-32.252V372.09a.9.9,0,1,1,1.8,0v18.876A34.232,34.232,0,0,1,523.411,425.021Z" transform="translate(-220.44 -216.9)" fill="#2d8592"/>
    <path id="Tracé_340" data-name="Tracé 340" d="M520.185,416.765H504.532a.9.9,0,0,1,0-1.8h15.654a27.173,27.173,0,0,0,27.281-27V372.538a.9.9,0,1,1,1.8,0V387.96A28.978,28.978,0,0,1,520.185,416.765Z" transform="translate(-220.44 -217.233)" fill="#2d8592"/>
    <path id="Tracé_341" data-name="Tracé 341" d="M526.153,433.656H504.532a.9.9,0,0,1,0-1.8h21.621a38.071,38.071,0,0,0,38.113-37.942V372.09a.9.9,0,0,1,1.8,0v21.821A39.876,39.876,0,0,1,526.153,433.656Z" transform="translate(-220.44 -216.9)" fill="#2d8592"/>
    <path id="Tracé_342" data-name="Tracé 342" d="M517.242,407.855H504.532a.9.9,0,0,1,0-1.8h12.711a21.575,21.575,0,0,0,21.753-21.343V372.18a.9.9,0,0,1,1.8,0v12.529A23.38,23.38,0,0,1,517.242,407.855Z" transform="translate(-220.44 -216.967)" fill="#2d8592"/>
    <path id="Tracé_343" data-name="Tracé 343" d="M516.182,399.22H504.532a.9.9,0,0,1,0-1.8h11.651a14.163,14.163,0,0,0,14.338-13.948V372.18a.9.9,0,0,1,1.8,0v11.289A15.968,15.968,0,0,1,516.182,399.22Z" transform="translate(-220.44 -216.967)" fill="#2d8592"/>
    <path id="Tracé_344" data-name="Tracé 344" d="M513.8,390.65h-9.271a.9.9,0,0,1,0-1.8H513.8c4.887,0,8.864-3.588,8.864-8v-8.67a.9.9,0,0,1,1.8,0v8.67C524.469,386.254,519.684,390.65,513.8,390.65Z" transform="translate(-220.44 -216.967)" fill="#2d8592"/>
    <path id="Tracé_345" data-name="Tracé 345" d="M510.085,382.09h-5.554a.9.9,0,0,1,0-1.8h5.554c2.441,0,4.427-1.586,4.427-3.535V372.18a.9.9,0,1,1,1.8,0v4.572C516.316,379.7,513.521,382.09,510.085,382.09Z" transform="translate(-220.44 -216.967)" fill="#2d8592"/>
    <path id="Tracé_346" data-name="Tracé 346" d="M512.431,377.475h-1.953a.9.9,0,1,1,0-1.8h.15v-.177a.9.9,0,1,1,1.8,0Z" transform="translate(-224.854 -219.428)" fill="#2d8592"/>
    <g id="Groupe_367" data-name="Groupe 367" transform="translate(283.016 79.024)">
      <path id="Tracé_347" data-name="Tracé 347" d="M760.577,337.38a.9.9,0,0,1-.636-1.541l3.145-3.13a.9.9,0,0,1,1.272,1.278l-3.145,3.13A.9.9,0,0,1,760.577,337.38Z" transform="translate(-693.542 -267.163)" fill="#4b9587"/>
      <path id="Tracé_348" data-name="Tracé 348" d="M720.157,306.859a.9.9,0,0,1-.636-1.541l14.143-14.068a.9.9,0,1,1,1.272,1.278L720.793,306.6A.9.9,0,0,1,720.157,306.859Z" transform="translate(-663.535 -236.385)" fill="#4b9587"/>
      <path id="Tracé_349" data-name="Tracé 349" d="M679.277,276.035a.9.9,0,0,1-.636-1.541l24.9-24.764a.9.9,0,1,1,1.272,1.279l-24.9,24.764A.9.9,0,0,1,679.277,276.035Z" transform="translate(-633.186 -205.56)" fill="#4b9587"/>
      <path id="Tracé_350" data-name="Tracé 350" d="M559.729,139.078h-.008a.9.9,0,0,1-.641-.277L532.56,111.241a.9.9,0,0,1-.252-.625V79.927a.9.9,0,1,1,1.8,0v30.326l25.63,26.637,26.647-26.647V79.927a.9.9,0,1,1,1.8,0v30.689a.9.9,0,0,1-.264.638l-27.561,27.561A.9.9,0,0,1,559.729,139.078Z" transform="translate(-524.747 -79.025)" fill="#4b9587"/>
      <path id="Tracé_351" data-name="Tracé 351" d="M582.229,127.369h0a.9.9,0,0,1-.638-.267L562.3,107.642a.9.9,0,0,1-.261-.635V79.927a.9.9,0,1,1,1.8,0v26.709l18.388,18.554,18.557-18.556V79.927a.9.9,0,1,1,1.8,0v27.08a.9.9,0,0,1-.264.638l-19.461,19.461A.9.9,0,0,1,582.229,127.369Z" transform="translate(-546.82 -79.025)" fill="#4b9587"/>
      <path id="Tracé_352" data-name="Tracé 352" d="M604.787,116.689a.9.9,0,0,1-.637-.264l-11.656-11.634a.9.9,0,0,1-.265-.638V79.927a.9.9,0,1,1,1.8,0V103.78l10.754,10.733L615.52,103.78V79.927a.9.9,0,0,1,1.8,0v24.227a.9.9,0,0,1-.264.638l-11.634,11.634A.9.9,0,0,1,604.787,116.689Z" transform="translate(-569.232 -79.025)" fill="#4b9587"/>
      <path id="Tracé_353" data-name="Tracé 353" d="M626.935,105.812h-.016a.9.9,0,0,1-.644-.288l-3.667-3.946a.9.9,0,0,1-.241-.614V79.927a.9.9,0,0,1,1.8,0V100.61l2.789,3,3.02-3.02V79.927a.9.9,0,1,1,1.8,0v21.038a.9.9,0,0,1-.264.638l-3.945,3.946A.9.9,0,0,1,626.935,105.812Z" transform="translate(-591.605 -79.025)" fill="#4b9587"/>
      <path id="Tracé_354" data-name="Tracé 354" d="M539.386,149.242h0a.9.9,0,0,1-.642-.269l-34.529-35.111a.9.9,0,0,1-.259-.632v-33.3a.9.9,0,0,1,1.8,0V112.86l33.627,34.194,33.66-34.195V79.927a.9.9,0,1,1,1.8,0v33.3a.9.9,0,0,1-.259.632l-34.562,35.111A.9.9,0,0,1,539.386,149.242Z" transform="translate(-503.698 -79.025)" fill="#4b9587"/>
      <path id="Tracé_355" data-name="Tracé 355" d="M507.987,338.057a.9.9,0,0,1-.639-.266l-3.13-3.145a.9.9,0,0,1,1.278-1.272l3.13,3.145a.9.9,0,0,1-.639,1.538Z" transform="translate(-503.698 -267.655)" fill="#4b9587"/>
      <path id="Tracé_356" data-name="Tracé 356" d="M517.925,308.635a.9.9,0,0,1-.639-.266l-14.068-14.143a.9.9,0,0,1,1.279-1.272L518.565,307.1a.9.9,0,0,1-.639,1.537Z" transform="translate(-502.956 -237.647)" fill="#4b9587"/>
      <path id="Tracé_357" data-name="Tracé 357" d="M528.621,278.51a.9.9,0,0,1-.639-.266l-24.764-24.9a.9.9,0,0,1,1.279-1.272l24.764,24.9a.9.9,0,0,1-.639,1.537Z" transform="translate(-502.956 -207.299)" fill="#4b9587"/>
    </g>
    <path id="Tracé_358" data-name="Tracé 358" d="M269.072,92.2a35.065,35.065,0,0,1-25.938-11.668.9.9,0,0,1,1.339-1.208,32.862,32.862,0,0,0,49.2,0,.9.9,0,0,1,1.339,1.208A35.065,35.065,0,0,1,269.072,92.2Z" transform="translate(-26.877 -0.001)" fill="#f2c2ae"/>
    <path id="Tracé_359" data-name="Tracé 359" d="M307.642,83.753a25.663,25.663,0,0,1-12.075-3.032.9.9,0,0,1,.852-1.59,23.758,23.758,0,0,0,22.447,0,.9.9,0,1,1,.852,1.59A25.662,25.662,0,0,1,307.642,83.753Z" transform="translate(-65.622)" fill="#f2c2ae"/>
    <path id="Tracé_360" data-name="Tracé 360" d="M242.026,104.42A42.506,42.506,0,0,1,222,99.388a44.459,44.459,0,0,1-15.139-13.414.9.9,0,0,1,1.471-1.044A42.645,42.645,0,0,0,222.857,97.8a40.141,40.141,0,0,0,19.169,4.818,40.694,40.694,0,0,0,19.323-4.9,42.65,42.65,0,0,0,14.57-13.077.9.9,0,0,1,1.479,1.031A44.457,44.457,0,0,1,262.208,99.3,42.5,42.5,0,0,1,242.026,104.42Z" transform="translate(-0.001 -3.882)" fill="#f2c2ae"/>
    <path id="Tracé_361" data-name="Tracé 361" d="M242.142,149.072a50.463,50.463,0,0,1-35.167-14.338.9.9,0,1,1,1.252-1.3,48.493,48.493,0,0,0,67.805.023.9.9,0,0,1,1.251,1.3A50.458,50.458,0,0,1,242.142,149.072Z" transform="translate(-0.001 -40.208)" fill="#f2c2ae"/>
    <path id="Tracé_362" data-name="Tracé 362" d="M241.889,189.067a58.033,58.033,0,0,1-34.826-11.574.9.9,0,1,1,1.075-1.448,56.387,56.387,0,0,0,67.975-.353.9.9,0,1,1,1.09,1.437A58.026,58.026,0,0,1,241.889,189.067Z" transform="translate(-0.001 -71.629)" fill="#f2c2ae"/>
    <path id="Tracé_363" data-name="Tracé 363" d="M242.142,225.951a65.868,65.868,0,0,1-35.02-10.095.9.9,0,0,1,.958-1.528,63.988,63.988,0,0,0,68.1.015.9.9,0,1,1,.957,1.528A65.876,65.876,0,0,1,242.142,225.951Z" transform="translate(0 -100.347)" fill="#f2c2ae"/>
    <path id="Tracé_364" data-name="Tracé 364" d="M242.25,260.237a73.354,73.354,0,0,1-35.082-8.967.9.9,0,1,1,.865-1.582,71.306,71.306,0,0,0,68.2.13.9.9,0,0,1,.859,1.586A73.355,73.355,0,0,1,242.25,260.237Z" transform="translate(0 -126.617)" fill="#f2c2ae"/>
    <path id="Tracé_365" data-name="Tracé 365" d="M242.053,295.328A79.873,79.873,0,0,1,207.21,287.4a.9.9,0,1,1,.78-1.625,78.748,78.748,0,0,0,68.275-.073.9.9,0,1,1,.784,1.624A79.845,79.845,0,0,1,242.053,295.328Z" transform="translate(0 -153.371)" fill="#f2c2ae"/>
    <path id="Tracé_366" data-name="Tracé 366" d="M242.25,329.33a88.058,88.058,0,0,1-35.006-7.2.9.9,0,1,1,.713-1.656,86.906,86.906,0,0,0,68.347.1.9.9,0,1,1,.708,1.659A88.061,88.061,0,0,1,242.25,329.33Z" transform="translate(0 -179.196)" fill="#f2c2ae"/>
    <path id="Tracé_367" data-name="Tracé 367" d="M611.515,378.093" transform="translate(-300.533 -222.026)" fill="none" stroke="#2d8592" stroke-linecap="round" stroke-miterlimit="10" stroke-width="7"/>
    <path id="Tracé_368" data-name="Tracé 368" d="M280.82,591.481a.9.9,0,0,1-.641-1.535l17.679-17.906a.9.9,0,1,1,1.284,1.266l-17.68,17.907A.9.9,0,0,1,280.82,591.481Z" transform="translate(-54.358 -365.812)" fill="#cd6586"/>
    <path id="Tracé_369" data-name="Tracé 369" d="M365.367,534.587a.9.9,0,0,1-.641-1.535l7.834-7.936a.9.9,0,1,1,1.283,1.267l-7.834,7.936A.9.9,0,0,1,365.367,534.587Z" transform="translate(-117.125 -330.976)" fill="#cd6586"/>
    <path id="Tracé_370" data-name="Tracé 370" d="M415.352,463.7a.9.9,0,0,1-.642-1.535L429.492,447.2a.9.9,0,0,1,1.283,1.267l-14.782,14.967A.9.9,0,0,1,415.352,463.7Z" transform="translate(-154.233 -273.132)" fill="#cd6586"/>
    <path id="Tracé_371" data-name="Tracé 371" d="M215.973,715.286h7.639v1.987h-9.624V699.5h1.985Z" transform="translate(-5.412 -460.634)" fill="#7a7a7a"/>
    <path id="Tracé_372" data-name="Tracé 372" d="M273.172,717.252h-2.16l7.635-17.779.005-.009,0,.009,7.43,17.779h-2.153l-1.727-4.131h-7.261Zm2.627-6.118h5.578l-2.75-6.583Z" transform="translate(-47.746 -460.61)" fill="#7a7a7a"/>
    <path id="Tracé_373" data-name="Tracé 373" d="M400.318,716.558h-1.985v-18.02l.228.247,6.807,7.4,6.807-7.4.228-.247v18.02h-1.986V703.629l-5.049,5.492-5.05-5.492Z" transform="translate(-142.268 -459.922)" fill="#7a7a7a"/>
    <path id="Tracé_374" data-name="Tracé 374" d="M474.722,717.252h-2.16l7.636-17.779.005-.009,0,.009,7.43,17.779h-2.153l-1.726-4.131H476.5Zm2.628-6.118h5.578l-2.75-6.583Z" transform="translate(-197.375 -460.61)" fill="#7a7a7a"/>
    <path id="Tracé_375" data-name="Tracé 375" d="M550.726,717.27V699.5h1.985V717.27Z" transform="translate(-255.404 -460.634)" fill="#7a7a7a"/>
    <path id="Tracé_376" data-name="Tracé 376" d="M640.488,708.721a8.761,8.761,0,1,1,8.761,8.761A8.771,8.771,0,0,1,640.488,708.721Zm1.985,0a6.776,6.776,0,1,0,6.776-6.776A6.784,6.784,0,0,0,642.473,708.721Z" transform="translate(-322.042 -460.978)" fill="#7a7a7a"/>
    <path id="Tracé_377" data-name="Tracé 377" d="M730.172,715.833h-1.985V697.561l.4.5,9.963,12.559V698.032h1.985v18.286l-.38-.478-9.979-12.58Z" transform="translate(-387.149 -459.197)" fill="#7a7a7a"/>
    <g id="Groupe_368" data-name="Groupe 368" transform="translate(207.676 266.583)">
      <path id="Tracé_378" data-name="Tracé 378" d="M213.919,832.641h-2.8V807.73h8.1a6.881,6.881,0,1,1,0,13.762h-5.3Zm5.3-22.11h-5.3v8.16h5.3a4.08,4.08,0,1,0,0-8.16Z" transform="translate(-210.957 -807.569)" fill="#7a7a7a"/>
      <path id="Tracé_379" data-name="Tracé 379" d="M213.616,832.337h-3.123V807.1h8.26a7.042,7.042,0,1,1,0,14.084h-5.137Zm-2.8-.322h2.479V820.867h5.459a6.72,6.72,0,1,0,0-13.44h-7.938Zm7.938-13.628h-5.459v-8.482h5.459a4.241,4.241,0,1,1,0,8.482Zm-5.137-.322h5.137a3.919,3.919,0,1,0,0-7.838h-5.137Z" transform="translate(-210.493 -807.104)" fill="#fff"/>
    </g>
    <g id="Groupe_369" data-name="Groupe 369" transform="translate(226.139 266.197)">
      <path id="Tracé_380" data-name="Tracé 380" d="M286.163,832.128h-3.047l10.774-25.086.007-.012,0,.012,10.484,25.086h-3.038l-2.435-5.829H288.667Zm3.708-8.633h7.87l-3.881-9.288Z" transform="translate(-282.872 -806.663)" fill="#7a7a7a"/>
      <path id="Tracé_381" data-name="Tracé 381" d="M303.923,831.231h-3.387L298.1,825.4H288.069l-2.5,5.829h-3.4l10.887-25.341.166-.286.122.308Zm-3.172-.322h2.689l-10.25-24.526-10.534,24.526h2.7l2.5-5.829h10.459Zm-3.473-8.311h-8.356l4.236-9.862Zm-7.867-.322h7.384l-3.641-8.714Z" transform="translate(-282.167 -805.604)" fill="#fff"/>
    </g>
    <g id="Groupe_370" data-name="Groupe 370" transform="translate(301.135 266.415)">
      <path id="Tracé_382" data-name="Tracé 382" d="M573.915,832.154V807.077h2.8v25.077Z" transform="translate(-573.754 -806.916)" fill="#7a7a7a"/>
      <path id="Tracé_383" data-name="Tracé 383" d="M576.413,831.851H573.29v-25.4h3.123Zm-2.8-.322h2.479V806.774h-2.479Z" transform="translate(-573.29 -806.452)" fill="#fff"/>
    </g>
    <g id="Groupe_371" data-name="Groupe 371" transform="translate(310.988 266.415)">
      <path id="Tracé_384" data-name="Tracé 384" d="M622.98,832.163l-10.5-25.086h3.035l7.612,18.186,7.5-18.186h3.03l-10.349,25.086-.163.4Z" transform="translate(-612.237 -806.916)" fill="#7a7a7a"/>
      <path id="Tracé_385" data-name="Tracé 385" d="M622.449,832.517l-.315-.755L611.54,806.452h3.384l7.5,17.927,7.4-17.927H633.2Zm-10.426-25.743,10.423,24.9.016-.038,10.258-24.864h-2.682l-7.609,18.444-7.72-18.444Z" transform="translate(-611.54 -806.452)" fill="#fff"/>
    </g>
    <g id="Groupe_372" data-name="Groupe 372" transform="translate(339.408 266.581)">
      <path id="Tracé_386" data-name="Tracé 386" d="M722.487,807.72h13.579v2.8H725.288v9.807H731.9v2.8h-6.611v6.509h10.778v2.8H722.487Z" transform="translate(-722.326 -807.559)" fill="#7a7a7a"/>
      <path id="Tracé_387" data-name="Tracé 387" d="M735.763,832.143h-13.9V807.1h13.9v3.126H724.984v9.484H731.6v3.126h-6.611v6.186h10.778Zm-13.58-.322H735.44V829.34H724.662v-6.83h6.611v-2.482h-6.611V809.9H735.44v-2.482H722.183Z" transform="translate(-721.861 -807.096)" fill="#fff"/>
    </g>
    <g id="Groupe_373" data-name="Groupe 373" transform="translate(252.854 266.818)">
      <path id="Tracé_388" data-name="Tracé 388" d="M386.418,826.555l2.565-.271a5.081,5.081,0,0,0,10.108-1.052c-.313-3-2.324-3.9-5.127-4.855a15.055,15.055,0,0,1-1.928-.755c-3.205-1.636-4.466-4.287-3.454-7.259a5.632,5.632,0,0,1,3.676-3.543,6.459,6.459,0,0,1,3.569-.107c.1.024.212.072.316.107a6.058,6.058,0,0,1,4.091,5.527l-2.573.056a3.572,3.572,0,0,0-2.461-3.192,3.385,3.385,0,0,0-4.18,1.979c-.372,1.106-.554,2.734,2.19,4.14a12.481,12.481,0,0,0,1.585.608c2.53.859,6.351,2.164,6.86,7.031a7.587,7.587,0,0,1-1.671,5.61,7.764,7.764,0,0,1-1.441,1.325,7.565,7.565,0,0,1-3.717,1.459,7.435,7.435,0,0,1-.811.043,7.574,7.574,0,0,1-4.5-1.5c-.1-.072-.209-.129-.305-.206A7.592,7.592,0,0,1,386.418,826.555Z" transform="translate(-386.277 -808.385)" fill="#7a7a7a"/>
      <path id="Tracé_389" data-name="Tracé 389" d="M393.61,833.166a7.684,7.684,0,0,1-4.577-1.524c-.04-.029-.082-.056-.124-.082a1.889,1.889,0,0,1-.186-.128,7.716,7.716,0,0,1-2.84-5.233l-.013-.128,2.821-.3.013.128a4.952,4.952,0,0,0,9.852-1.025c-.3-2.918-2.282-3.808-5.041-4.746l-.048-.016a14.787,14.787,0,0,1-1.9-.746c-3.271-1.67-4.553-4.373-3.517-7.415a5.755,5.755,0,0,1,3.759-3.624,6.6,6.6,0,0,1,3.64-.109,2.025,2.025,0,0,1,.216.07c.037.014.074.027.109.039a6.2,6.2,0,0,1,4.18,5.646l0,.129-2.831.062,0-.129a3.437,3.437,0,0,0-2.363-3.07,3.263,3.263,0,0,0-4.026,1.9c-.357,1.06-.524,2.626,2.127,3.983a11.41,11.41,0,0,0,1.462.565l.106.036c2.56.869,6.429,2.183,6.947,7.14a7.715,7.715,0,0,1-1.7,5.7,7.892,7.892,0,0,1-1.465,1.348,7.751,7.751,0,0,1-3.779,1.483A7.655,7.655,0,0,1,393.61,833.166Zm-7.457-6.866a7.459,7.459,0,0,0,2.731,4.932,1.6,1.6,0,0,0,.161.11c.047.03.094.06.139.092a7.412,7.412,0,0,0,8.877,0,7.624,7.624,0,0,0,1.417-1.3,7.461,7.461,0,0,0,1.642-5.515c-.5-4.792-4.276-6.074-6.773-6.922l-.105-.036a11.631,11.631,0,0,1-1.5-.579c-2.828-1.449-2.641-3.145-2.253-4.3a3.516,3.516,0,0,1,4.332-2.063,3.732,3.732,0,0,1,2.554,3.185l2.317-.051a5.983,5.983,0,0,0-4-5.278l-.117-.042a1.927,1.927,0,0,0-.188-.063,6.357,6.357,0,0,0-3.5.1,5.5,5.5,0,0,0-3.594,3.462c-.99,2.908.246,5.5,3.391,7.1a14.566,14.566,0,0,0,1.863.732l.048.017c2.85.969,4.893,1.892,5.213,4.963a5.21,5.21,0,0,1-10.349,1.207Z" transform="translate(-385.869 -808.016)" fill="#fff"/>
    </g>
    <g id="Groupe_374" data-name="Groupe 374" transform="translate(274.717 266.818)">
      <path id="Tracé_390" data-name="Tracé 390" d="M471.286,826.555l2.565-.271a5.081,5.081,0,0,0,10.108-1.052c-.313-3-2.324-3.9-5.128-4.855a15.067,15.067,0,0,1-1.928-.755c-3.205-1.636-4.466-4.287-3.454-7.259a5.633,5.633,0,0,1,3.676-3.543,6.46,6.46,0,0,1,3.569-.107c.1.024.212.072.316.107a6.061,6.061,0,0,1,4.091,5.527l-2.573.056a3.572,3.572,0,0,0-2.461-3.192,3.385,3.385,0,0,0-4.18,1.979c-.372,1.106-.554,2.734,2.19,4.14a12.47,12.47,0,0,0,1.585.608c2.53.859,6.351,2.164,6.86,7.031a7.587,7.587,0,0,1-1.671,5.61,7.769,7.769,0,0,1-1.441,1.325,7.566,7.566,0,0,1-3.716,1.459,7.435,7.435,0,0,1-.811.043,7.573,7.573,0,0,1-4.5-1.5c-.1-.072-.209-.129-.305-.206A7.592,7.592,0,0,1,471.286,826.555Z" transform="translate(-471.145 -808.385)" fill="#7a7a7a"/>
      <path id="Tracé_391" data-name="Tracé 391" d="M478.477,833.165a7.683,7.683,0,0,1-4.577-1.524c-.04-.029-.082-.056-.124-.082a1.882,1.882,0,0,1-.185-.128,7.718,7.718,0,0,1-2.84-5.233l-.013-.128,2.821-.3.013.128a4.952,4.952,0,0,0,9.852-1.025c-.3-2.918-2.282-3.808-5.041-4.746l-.049-.017a14.787,14.787,0,0,1-1.9-.746c-3.271-1.67-4.553-4.373-3.517-7.415a5.755,5.755,0,0,1,3.759-3.624,6.592,6.592,0,0,1,3.64-.109,2.063,2.063,0,0,1,.216.071c.037.014.074.027.109.039a6.2,6.2,0,0,1,4.179,5.646l0,.129-2.831.062,0-.128a3.437,3.437,0,0,0-2.364-3.07,3.264,3.264,0,0,0-4.026,1.895c-.357,1.06-.524,2.626,2.127,3.983a11.406,11.406,0,0,0,1.462.565l.106.036c2.56.869,6.429,2.183,6.947,7.14a7.718,7.718,0,0,1-1.7,5.7,7.9,7.9,0,0,1-1.464,1.348,7.751,7.751,0,0,1-3.779,1.483A7.626,7.626,0,0,1,478.477,833.165Zm-7.456-6.866a7.459,7.459,0,0,0,2.731,4.932,1.66,1.66,0,0,0,.161.11c.047.03.094.06.139.093a7.428,7.428,0,0,0,4.425,1.475,7.421,7.421,0,0,0,4.451-1.477,7.61,7.61,0,0,0,1.417-1.3,7.46,7.46,0,0,0,1.642-5.515c-.5-4.792-4.276-6.074-6.773-6.922l-.105-.036a11.614,11.614,0,0,1-1.5-.58c-2.828-1.448-2.641-3.145-2.254-4.3a3.515,3.515,0,0,1,4.333-2.063,3.732,3.732,0,0,1,2.554,3.185l2.317-.051a5.987,5.987,0,0,0-4-5.278l-.117-.042a1.934,1.934,0,0,0-.189-.063,6.341,6.341,0,0,0-3.5.1,5.5,5.5,0,0,0-3.594,3.461c-.991,2.908.245,5.5,3.391,7.1a14.581,14.581,0,0,0,1.862.731l.049.017c2.85.969,4.893,1.892,5.214,4.963a5.21,5.21,0,0,1-10.349,1.207Z" transform="translate(-470.737 -808.014)" fill="#fff"/>
    </g>
    <path id="Tracé_392" data-name="Tracé 392" d="M580.215,712.955l1.874-.2a3.712,3.712,0,0,0,7.385-.769c-.229-2.189-1.7-2.85-3.746-3.547a11,11,0,0,1-1.409-.552c-2.341-1.2-3.263-3.132-2.523-5.3A4.115,4.115,0,0,1,584.481,700a4.72,4.72,0,0,1,2.608-.078c.072.018.154.053.231.078a4.429,4.429,0,0,1,2.989,4.037l-1.88.041a2.61,2.61,0,0,0-1.8-2.332,2.473,2.473,0,0,0-3.054,1.446c-.272.808-.4,2,1.6,3.024a9.116,9.116,0,0,0,1.158.444c1.849.628,4.64,1.581,5.012,5.137a5.543,5.543,0,0,1-1.221,4.1,5.661,5.661,0,0,1-1.053.968,5.528,5.528,0,0,1-2.715,1.066,5.415,5.415,0,0,1-.593.031,5.533,5.533,0,0,1-3.288-1.1c-.072-.053-.153-.094-.223-.151A5.546,5.546,0,0,1,580.215,712.955Z" transform="translate(-277.296 -460.84)" fill="#7a7a7a"/>
  </g>
</svg>
