<svg xmlns="http://www.w3.org/2000/svg" width="44" height="44" viewBox="0 0 44 44">
  <g id="Groupe_419" data-name="Groupe 419" transform="translate(-819 -563)">
    <circle id="Ellipse_13" data-name="Ellipse 13" cx="22" cy="22" r="22" transform="translate(819 563)" fill="#4f9687"/>
    <path id="Icon_material-group" data-name="Icon material-group" d="M14.123,12.549A2.525,2.525,0,1,0,11.6,10.025,2.514,2.514,0,0,0,14.123,12.549Zm-6.732,0a2.525,2.525,0,1,0-2.525-2.525A2.514,2.514,0,0,0,7.391,12.549Zm0,1.683c-1.961,0-5.891.985-5.891,2.945v2.1H13.281v-2.1C13.281,15.217,9.351,14.232,7.391,14.232Zm6.732,0c-.244,0-.522.017-.816.042a3.551,3.551,0,0,1,1.658,2.9v2.1h5.049v-2.1C20.013,15.217,16.083,14.232,14.123,14.232Z" transform="translate(830.443 571.609)" fill="#fff"/>
  </g>
</svg>
