<svg xmlns="http://www.w3.org/2000/svg" width="44" height="44" viewBox="0 0 44 44">
  <g id="Groupe_421" data-name="Groupe 421" transform="translate(-819 -671)">
    <circle id="Ellipse_15" data-name="Ellipse 15" cx="22" cy="22" r="22" transform="translate(819 671)" fill="#4f9687"/>
    <path id="Icon_awesome-hand-rock" data-name="Icon awesome-hand-rock" d="M17.17,4.023a1.773,1.773,0,0,0-1.8,1.773h-.3V4.644a1.8,1.8,0,0,0-1.744-1.8,1.773,1.773,0,0,0-1.8,1.773V5.8h-.3V4.052a1.8,1.8,0,0,0-1.744-1.8,1.773,1.773,0,0,0-1.8,1.773V5.8h-.3V4.644a1.8,1.8,0,0,0-1.744-1.8,1.773,1.773,0,0,0-1.8,1.773V9.638l-.3-.262V7.6A1.8,1.8,0,0,0,1.8,5.8,1.773,1.773,0,0,0,0,7.569v2.453a3.555,3.555,0,0,0,1.189,2.652l4.126,3.668a1.781,1.781,0,0,1,.595,1.326v.247A.884.884,0,0,0,6.8,18.8h8.866a.884.884,0,0,0,.887-.887v-.107a3.6,3.6,0,0,1,.277-1.378l1.81-4.3a3.531,3.531,0,0,0,.277-1.378V5.826a1.793,1.793,0,0,0-1.744-1.8Z" transform="translate(831.543 682.474)" fill="#fff"/>
  </g>
</svg>
