<svg xmlns="http://www.w3.org/2000/svg" width="44" height="44" viewBox="0 0 44 44">
  <g id="Groupe_423" data-name="Groupe 423" transform="translate(-819 -779)">
    <circle id="Ellipse_17" data-name="Ellipse 17" cx="22" cy="22" r="22" transform="translate(819 779)" fill="#4f9687"/>
    <path id="Icon_awesome-info" data-name="Icon awesome-info" d="M.668,14.159h.668V9.337H.668A.667.667,0,0,1,0,8.67V7.076a.667.667,0,0,1,.668-.668H4.406a.667.667,0,0,1,.668.668v7.083h.668a.667.667,0,0,1,.668.668v1.594a.667.667,0,0,1-.668.668H.668A.667.667,0,0,1,0,16.421V14.826A.667.667,0,0,1,.668,14.159ZM3.2,0a2.4,2.4,0,1,0,2.4,2.4A2.4,2.4,0,0,0,3.2,0Z" transform="translate(837.9 792.733)" fill="#fff"/>
  </g>
</svg>
